<svg xmlns="http://www.w3.org/2000/svg" viewBox="0 0 400 300" width="400" height="300" role="presentation" aria-hidden="true"><path d="M10 160 C10 17.0 162.0 30 257.0 36.5 C399.5 43.0 399.5 186.0 352.0 251.0 C295.0 309.5 86.0 303.0 10 160z" fill="#fff1c9"/><rect x="327" y="22" width="6" height="10" rx="3" fill="#ffc845" transform="rotate(0 330 60)"/><rect x="327" y="22" width="6" height="10" rx="3" fill="#ffc845" transform="rotate(45 330 60)"/><rect x="327" y="22" width="6" height="10" rx="3" fill="#ffc845" transform="rotate(90 330 60)"/><rect x="327" y="22" width="6" height="10" rx="3" fill="#ffc845" transform="rotate(135 330 60)"/><rect x="327" y="22" width="6" height="10" rx="3" fill="#ffc845" transform="rotate(180 330 60)"/><rect x="327" y="22" width="6" height="10" rx="3" fill="#ffc845" transform="rotate(225 330 60)"/><rect x="327" y="22" width="6" height="10" rx="3" fill="#ffc845" transform="rotate(270 330 60)"/><rect x="327" y="22" width="6" height="10" rx="3" fill="#ffc845" transform="rotate(315 330 60)"/><circle cx="330" cy="60" r="22" fill="#ffc845"/><g transform="translate(50 55) scale(0.8)" fill="#ffffff"><circle cx="0" cy="0" r="14"/><circle cx="18" cy="-8" r="18"/><circle cx="38" cy="0" r="14"/><rect x="0" y="-2" width="38" height="16" rx="8"/></g><path d="M0 262 q100 -30 200 -6 t200 -4 V300 H0z" fill="#37c3a0" opacity=".7"/><path d="M250 70 l30 22 -12 38 -38 -22z" fill="#ff7a5c"/><path d="M250 70 L256 118" stroke="#fff" stroke-width="2"/><path d="M230 108 q-10 50 -60 88" stroke="#12263f" stroke-width="2" fill="none"/><path d="M256 130 q-6 10 4 16 q-10 6 -2 14" stroke="#ffc845" stroke-width="4" fill="none" stroke-linecap="round"/><rect x="147.04" y="218.28" width="10.080000000000002" height="51.71999999999999" rx="3.6" fill="#003a69"/><rect x="162.88" y="218.28" width="10.080000000000002" height="51.71999999999999" rx="3.6" fill="#003a69"/><ellipse cx="151.36" cy="270" rx="8.64" ry="3.6" fill="#12263f"/><ellipse cx="168.64" cy="270" rx="8.64" ry="3.6" fill="#12263f"/><rect x="142.0" y="179.52" width="36.0" height="45.6" rx="14.4" fill="#cfe6fb"/><path d="M144.88 188.64000000000001 l-7.2 25.080000000000002" stroke="#cfe6fb" stroke-width="7.2" stroke-linecap="round"/><path d="M175.12 188.64000000000001 l12.6 -20.52" stroke="#cfe6fb" stroke-width="7.2" stroke-linecap="round"/><circle cx="188.8" cy="165.84" r="4.32" fill="#e8b48a"/><circle cx="137.68" cy="216.0" r="4.32" fill="#e8b48a"/><circle cx="160" cy="149.28" r="6.4799999999999995" fill="#c77d3a"/><circle cx="160" cy="164.4" r="14.399999999999999" fill="#e8b48a"/><path d="M145.312 163.68 a14.687999999999999 14.687999999999999 0 0 1 29.375999999999998 0 q-7.199999999999999 -7.92 -17.279999999999998 -6.4799999999999995 q-7.199999999999999 1.44 -12.095999999999998 6.4799999999999995 z" fill="#c77d3a"/><circle cx="155.2" cy="163.7" r="1.3" fill="#12263f"/><circle cx="164.8" cy="163.7" r="1.3" fill="#12263f"/><path d="M155.7 168.7 q4.3 4.0 8.6 0" stroke="#12263f" stroke-width="1.5" fill="none" stroke-linecap="round"/><circle cx="152.1" cy="168.0" r="2.0" fill="#ff7a5c" opacity=".35"/><circle cx="167.9" cy="168.0" r="2.0" fill="#ff7a5c" opacity=".35"/><rect x="78.8" y="205.35" width="12.600000000000001" height="64.65" rx="4.5" fill="#12263f"/><rect x="98.6" y="205.35" width="12.600000000000001" height="64.65" rx="4.5" fill="#12263f"/><ellipse cx="84.2" cy="270" rx="10.799999999999999" ry="4.5" fill="#12263f"/><ellipse cx="105.8" cy="270" rx="10.799999999999999" ry="4.5" fill="#12263f"/><rect x="72.5" y="156.9" width="45.0" height="57.0" rx="18.0" fill="#0f8b8d"/><path d="M76.1 168.3 l-9.0 31.35" stroke="#0f8b8d" stroke-width="9.0" stroke-linecap="round"/><path d="M113.9 168.3 l9.0 31.35" stroke="#0f8b8d" stroke-width="9.0" stroke-linecap="round"/><circle cx="67.1" cy="202.5" r="5.3999999999999995" fill="#e8b48a"/><circle cx="122.9" cy="202.5" r="5.3999999999999995" fill="#e8b48a"/><circle cx="95" cy="138.0" r="18.0" fill="#e8b48a"/><path d="M76.64 137.1 a18.36 18.36 0 0 1 36.72 0 q-9.0 -9.9 -21.599999999999998 -8.1 q-9.0 1.8 -15.12 8.1 z" fill="#5a3a22"/><circle cx="89.1" cy="137.1" r="1.6" fill="#12263f"/><circle cx="100.9" cy="137.1" r="1.6" fill="#12263f"/><path d="M89.6 143.4 q5.4 5.0 10.8 0" stroke="#12263f" stroke-width="1.8" fill="none" stroke-linecap="round"/><circle cx="85.1" cy="142.5" r="2.5" fill="#ff7a5c" opacity=".35"/><circle cx="104.9" cy="142.5" r="2.5" fill="#ff7a5c" opacity=".35"/><g transform="translate(345 262) scale(0.9)"><path d="M0 0 C-30 -20 -28 -60 -6 -70 C-2 -40 0 -20 0 0z" fill="#37c3a0"/><path d="M0 0 C30 -18 34 -52 12 -64 C6 -36 2 -18 0 0z" fill="#0f8b8d"/><path d="M-16 0 h32 l-5 26 h-22z" fill="#ff7a5c"/></g></svg>
