<svg xmlns="http://www.w3.org/2000/svg" viewBox="0 0 400 280" width="400" height="280" role="presentation" aria-hidden="true"><path d="M30 150 C30 18.0 166.0 30 251.0 36.0 C378.5 42.0 378.5 174.0 336.0 234.0 C285.0 288.0 98.0 282.0 30 150z" fill="#eef6fd"/><rect x="130" y="50" width="130" height="200" rx="60" fill="#003a69"/><rect x="145" y="65" width="100" height="185" rx="50" fill="#ffc845"/><circle cx="222" cy="160" r="7" fill="#003a69"/><g transform="rotate(-30 300 180)"><circle cx="300" cy="180" r="24" fill="#ff7a5c"/><circle cx="300" cy="180" r="9" fill="#eef6fd"/><rect x="320" y="174" width="60" height="12" rx="6" fill="#ff7a5c"/><rect x="360" y="186" width="10" height="16" rx="3" fill="#ff7a5c"/><rect x="344" y="186" width="10" height="12" rx="3" fill="#ff7a5c"/></g><g transform="translate(90 250) scale(0.8)"><path d="M0 0 C-30 -20 -28 -60 -6 -70 C-2 -40 0 -20 0 0z" fill="#37c3a0"/><path d="M0 0 C30 -18 34 -52 12 -64 C6 -36 2 -18 0 0z" fill="#0f8b8d"/><path d="M-16 0 h32 l-5 26 h-22z" fill="#ff7a5c"/></g></svg>
