<svg xmlns="http://www.w3.org/2000/svg" viewBox="0 0 400 290" width="400" height="290" role="presentation" aria-hidden="true"><path d="M10 150 C10 12.5 162.0 25 257.0 31.25 C399.5 37.5 399.5 175.0 352.0 237.5 C295.0 293.75 86.0 287.5 10 150z" fill="#efeafd"/><rect x="347" y="23" width="6" height="10" rx="3" fill="#ffc845" transform="rotate(0 350 55)"/><rect x="347" y="23" width="6" height="10" rx="3" fill="#ffc845" transform="rotate(45 350 55)"/><rect x="347" y="23" width="6" height="10" rx="3" fill="#ffc845" transform="rotate(90 350 55)"/><rect x="347" y="23" width="6" height="10" rx="3" fill="#ffc845" transform="rotate(135 350 55)"/><rect x="347" y="23" width="6" height="10" rx="3" fill="#ffc845" transform="rotate(180 350 55)"/><rect x="347" y="23" width="6" height="10" rx="3" fill="#ffc845" transform="rotate(225 350 55)"/><rect x="347" y="23" width="6" height="10" rx="3" fill="#ffc845" transform="rotate(270 350 55)"/><rect x="347" y="23" width="6" height="10" rx="3" fill="#ffc845" transform="rotate(315 350 55)"/><circle cx="350" cy="55" r="16" fill="#ffc845"/><rect x="70" y="60" width="260" height="170" rx="16" fill="#12263f"/><rect x="82" y="72" width="236" height="134" rx="8" fill="#fff"/><rect x="88" y="78" width="106" height="58" rx="6" fill="#cfe6fb"/><rect x="124" y="116" width="34" height="20" rx="10" fill="#003a69"/><path d="M126.7 120.9 V104 a14.3 14.3 0 0 1 28.6 0 V120.9 z" fill="#c77d3a"/><circle cx="141" cy="104" r="13" fill="#f5cfa7"/><path d="M127.74 103.35 a13.26 13.26 0 0 1 26.52 0 q-6.5 -7.15 -15.6 -5.8500000000000005 q-6.5 1.3 -10.92 5.8500000000000005 z" fill="#c77d3a"/><circle cx="136.7" cy="103.3" r="1.2" fill="#12263f"/><circle cx="145.3" cy="103.3" r="1.2" fill="#12263f"/><path d="M137.1 107.9 q3.9 3.6 7.8 0" stroke="#12263f" stroke-width="1.5" fill="none" stroke-linecap="round"/><circle cx="133.8" cy="107.2" r="1.8" fill="#ff7a5c" opacity=".35"/><circle cx="148.2" cy="107.2" r="1.8" fill="#ff7a5c" opacity=".35"/><rect x="206" y="78" width="106" height="58" rx="6" fill="#fde7d3"/><rect x="242" y="116" width="34" height="20" rx="10" fill="#003a69"/><circle cx="259" cy="104" r="13" fill="#6b4226"/><circle cx="248.6" cy="99.5" r="5.5" fill="#1a1a1a"/><circle cx="253.2" cy="93.6" r="5.5" fill="#1a1a1a"/><circle cx="259.0" cy="91.7" r="5.5" fill="#1a1a1a"/><circle cx="264.9" cy="93.6" r="5.5" fill="#1a1a1a"/><circle cx="269.4" cy="99.5" r="5.5" fill="#1a1a1a"/><circle cx="254.7" cy="103.3" r="1.2" fill="#12263f"/><circle cx="263.3" cy="103.3" r="1.2" fill="#12263f"/><path d="M255.1 107.9 q3.9 3.6 7.8 0" stroke="#12263f" stroke-width="1.5" fill="none" stroke-linecap="round"/><circle cx="251.8" cy="107.2" r="1.8" fill="#ff7a5c" opacity=".35"/><circle cx="266.1" cy="107.2" r="1.8" fill="#ff7a5c" opacity=".35"/><rect x="88" y="144" width="106" height="58" rx="6" fill="#e6f7f1"/><rect x="124" y="182" width="34" height="20" rx="10" fill="#003a69"/><circle cx="141" cy="170" r="13" fill="#d9a066"/><path d="M127.74 169.35 a13.26 13.26 0 0 1 26.52 0 q-6.5 -7.15 -15.6 -5.8500000000000005 q-6.5 1.3 -10.92 5.8500000000000005 z" fill="#2b1d14"/><circle cx="136.7" cy="169.3" r="1.2" fill="#12263f"/><circle cx="145.3" cy="169.3" r="1.2" fill="#12263f"/><path d="M137.1 173.9 q3.9 3.6 7.8 0" stroke="#12263f" stroke-width="1.5" fill="none" stroke-linecap="round"/><circle cx="133.8" cy="173.2" r="1.8" fill="#ff7a5c" opacity=".35"/><circle cx="148.2" cy="173.2" r="1.8" fill="#ff7a5c" opacity=".35"/><rect x="206" y="144" width="106" height="58" rx="6" fill="#fff1c9"/><rect x="242" y="182" width="34" height="20" rx="10" fill="#003a69"/><circle cx="259" cy="156.35" r="5.8500000000000005" fill="#5a3a22"/><circle cx="259" cy="170" r="13" fill="#a86b3c"/><path d="M245.74 169.35 a13.26 13.26 0 0 1 26.52 0 q-6.5 -7.15 -15.6 -5.8500000000000005 q-6.5 1.3 -10.92 5.8500000000000005 z" fill="#5a3a22"/><circle cx="254.7" cy="169.3" r="1.2" fill="#12263f"/><circle cx="263.3" cy="169.3" r="1.2" fill="#12263f"/><path d="M255.1 173.9 q3.9 3.6 7.8 0" stroke="#12263f" stroke-width="1.5" fill="none" stroke-linecap="round"/><circle cx="251.8" cy="173.2" r="1.8" fill="#ff7a5c" opacity=".35"/><circle cx="266.1" cy="173.2" r="1.8" fill="#ff7a5c" opacity=".35"/><rect x="170" y="230" width="60" height="30" fill="#12263f"/><rect x="130" y="258" width="140" height="12" rx="6" fill="#12263f"/><circle cx="200" cy="140" r="26" fill="#ff7a5c"/><path d="M192 127v26l22-13z" fill="#fff"/></svg>
