<svg xmlns="http://www.w3.org/2000/svg" viewBox="0 0 376 379" width="376" height="379" role="img"><title>The start of parental controls set-up, with a Get started button.</title><rect x="0" y="0" width="376" height="379" rx="30" fill="#1D1D1F"/><defs><clipPath id="and-parental-intro-clip"><rect x="0" y="0" width="360" height="363" rx="23"/></clipPath></defs><g transform="translate(8 8)"><g clip-path="url(#and-parental-intro-clip)"><rect x="0" y="0" width="360" height="363" fill="#FFFFFF"/><text x="20" y="27" font-family="Inter" font-size="14" font-weight="500" fill="#000000">9:41</text><circle cx="180" cy="21" r="6" fill="#1D1D1F"/><path d="M284 26 l7 -9 7 9 z" fill="#000000"/><path d="M302 27 l10 -11 v11 z" fill="#000000"/><rect x="320" y="15" width="8" height="13" rx="1.5" fill="#000000"/><g transform="translate(18 57) scale(1)" fill="none" stroke="#1F1F1F" stroke-width="2" stroke-linecap="round" stroke-linejoin="round"><path d="m12 19-7-7 7-7" /> <path d="M19 12H5" /></g><g transform="translate(22 112) scale(1.6667)" fill="none" stroke="#0B57D0" stroke-width="2" stroke-linecap="round" stroke-linejoin="round"><path d="M16 21v-2a4 4 0 0 0-4-4H6a4 4 0 0 0-4 4v2" /> <path d="M16 3.128a4 4 0 0 1 0 7.744" /> <path d="M22 21v-2a4 4 0 0 0-3-3.87" /> <circle cx="9" cy="7" r="4" /></g><text x="22" y="192" font-family="Inter" font-size="24" font-weight="400" fill="#1F1F1F">Parental controls</text><text x="22" y="220" font-family="Inter" font-size="15" font-weight="400" fill="#444746">Set up Family Link to supervise this phone:</text><text x="22" y="241" font-family="Inter" font-size="15" font-weight="400" fill="#444746">set screen time limits, manage apps and</text><text x="22" y="262" font-family="Inter" font-size="15" font-weight="400" fill="#444746">filter websites.</text><rect x="208.5" y="303" width="131.5" height="40" rx="20" fill="#0B57D0"/><text x="274.3" y="328" font-family="Inter" font-size="14.5" font-weight="600" fill="#FFF" text-anchor="middle">Get started</text></g><rect x="205.5" y="300" width="137.5" height="46" rx="12" fill="none" stroke="#E8542F" stroke-width="2.5"/><rect x="189.2" y="289" width="143.8" height="21" rx="10.5" fill="#E8542F"/><text x="261.1" y="303.5" font-family="Inter" font-size="11.5" font-weight="700" fill="#FFFFFF" text-anchor="middle">Tap (or Let's do this)</text></g></svg>
