<svg xmlns="http://www.w3.org/2000/svg" viewBox="0 0 376 544" width="376" height="544" role="img"><title>Adding an approved site in Family Link: type the web address exactly, then tap Add.</title><rect x="0" y="0" width="376" height="544" rx="30" fill="#1D1D1F"/><defs><clipPath id="fl-add-site-clip"><rect x="0" y="0" width="360" height="528" rx="23"/></clipPath></defs><g transform="translate(8 8)"><g clip-path="url(#fl-add-site-clip)"><rect x="0" y="0" width="360" height="528" fill="#FFFFFF"/><text x="20" y="27" font-family="Inter" font-size="14" font-weight="500" fill="#000000">9:41</text><circle cx="180" cy="21" r="6" fill="#1D1D1F"/><path d="M284 26 l7 -9 7 9 z" fill="#000000"/><path d="M302 27 l10 -11 v11 z" fill="#000000"/><rect x="320" y="15" width="8" height="13" rx="1.5" fill="#000000"/><g transform="translate(18 57) scale(1)" fill="none" stroke="#1F1F1F" stroke-width="2" stroke-linecap="round" stroke-linejoin="round"><path d="m12 19-7-7 7-7" /> <path d="M19 12H5" /></g><text x="62" y="76" font-family="Inter" font-size="21" font-weight="400" fill="#1F1F1F">Approved sites</text><g transform="translate(20 120) scale(1)" fill="none" stroke="#444746" stroke-width="2" stroke-linecap="round" stroke-linejoin="round"><circle cx="12" cy="12" r="10" /> <path d="M12 2a14.5 14.5 0 0 0 0 20 14.5 14.5 0 0 0 0-20" /> <path d="M2 12h20" /></g><text x="72" y="138" font-family="Inter" font-size="16" font-weight="400" fill="#1F1F1F">school.example.sch.uk</text><g transform="translate(20 176) scale(1)" fill="none" stroke="#444746" stroke-width="2" stroke-linecap="round" stroke-linejoin="round"><circle cx="12" cy="12" r="10" /> <path d="M12 2a14.5 14.5 0 0 0 0 20 14.5 14.5 0 0 0 0-20" /> <path d="M2 12h20" /></g><text x="72" y="194" font-family="Inter" font-size="16" font-weight="400" fill="#1F1F1F">moodle.example.org</text><rect x="0" y="-178" width="360" height="1200" fill="#000" fill-opacity=".32"/><rect x="24" y="232" width="312" height="250" rx="28" fill="#F0F4F9"/><text x="48" y="276" font-family="Inter" font-size="22" font-weight="400" fill="#1F1F1F">Add a website</text><rect x="44" y="308" width="272" height="54" rx="6" fill="#F0F4F9" stroke="#0B57D0" stroke-width="2"/><rect x="54" y="301" width="54.202" height="14" fill="#F0F4F9"/><text x="59" y="312" font-family="Inter" font-size="12" font-weight="400" fill="#0B57D0">Website</text><text x="58" y="341" font-family="Inter" font-size="16" font-weight="400" fill="#1F1F1F">bbc.co.uk/bitesize</text><text x="240" y="438" font-family="Inter" font-size="14.5" font-weight="600" fill="#0B57D0" text-anchor="end">Cancel</text><text x="304" y="438" font-family="Inter" font-size="14.5" font-weight="600" fill="#0B57D0" text-anchor="end">Add</text></g><rect x="41" y="305" width="278" height="60" rx="12" fill="none" stroke="#E8542F" stroke-width="2.5"/><rect x="205.4" y="294" width="103.6" height="21" rx="10.5" fill="#E8542F"/><text x="257.2" y="308.5" font-family="Inter" font-size="11.5" font-weight="700" fill="#FFFFFF" text-anchor="middle">Type it exactly</text><rect x="265" y="415" width="54" height="36" rx="12" fill="none" stroke="#E8542F" stroke-width="2.5"/><rect x="239.9" y="441" width="69.1" height="21" rx="10.5" fill="#E8542F"/><text x="274.5" y="455.5" font-family="Inter" font-size="11.5" font-weight="700" fill="#FFFFFF" text-anchor="middle">Then Add</text></g></svg>
