<svg xmlns="http://www.w3.org/2000/svg" viewBox="0 0 376 428" width="376" height="428" role="img"><title>Family Link on your phone, open at your child. Their phone is shown by its model name (here SM-S901B). Tap Screen time: you don't need to go into Controls.</title><rect x="0" y="0" width="376" height="428" rx="30" fill="#1D1D1F"/><defs><clipPath id="fl-home-clip"><rect x="0" y="0" width="360" height="412" rx="23"/></clipPath></defs><g transform="translate(8 8)"><g clip-path="url(#fl-home-clip)"><rect x="0" y="0" width="360" height="412" fill="#FFFFFF"/><text x="20" y="27" font-family="Inter" font-size="14" font-weight="500" fill="#000000">9:41</text><circle cx="180" cy="21" r="6" fill="#1D1D1F"/><path d="M284 26 l7 -9 7 9 z" fill="#000000"/><path d="M302 27 l10 -11 v11 z" fill="#000000"/><rect x="320" y="15" width="8" height="13" rx="1.5" fill="#000000"/><g transform="translate(18 57) scale(1)" fill="none" stroke="#1F1F1F" stroke-width="2" stroke-linecap="round" stroke-linejoin="round"><path d="m12 19-7-7 7-7" /> <path d="M19 12H5" /></g><text x="62" y="76" font-family="Inter" font-size="21" font-weight="400" fill="#1F1F1F">Alex</text><rect x="16" y="112" width="328" height="76" rx="16" fill="#F0F4F9"/><g transform="translate(34 136) scale(1.1667)" fill="none" stroke="#0B57D0" stroke-width="2" stroke-linecap="round" stroke-linejoin="round"><rect width="14" height="20" x="5" y="2" rx="2" ry="2" /> <path d="M12 18h.01" /></g><text x="80" y="146" font-family="Inter" font-size="16" font-weight="600" fill="#1F1F1F">SM-S901B</text><text x="80" y="166" font-family="Inter" font-size="13.5" font-weight="400" fill="#444746">Your child's phone (model name)</text><g transform="translate(20 224) scale(1)" fill="none" stroke="#444746" stroke-width="2" stroke-linecap="round" stroke-linejoin="round"><path d="M5 22h14" /> <path d="M5 2h14" /> <path d="M17 22v-4.172a2 2 0 0 0-.586-1.414L12 12l-4.414 4.414A2 2 0 0 0 7 17.828V22" /> <path d="M7 2v4.172a2 2 0 0 0 .586 1.414L12 12l4.414-4.414A2 2 0 0 0 17 6.172V2" /></g><text x="72" y="233" font-family="Inter" font-size="16" font-weight="400" fill="#1F1F1F">Screen time</text><text x="72" y="253" font-family="Inter" font-size="13.5" font-weight="400" fill="#444746">Schedules, time limits, allowed apps</text><g transform="translate(20 296) scale(1)" fill="none" stroke="#444746" stroke-width="2" stroke-linecap="round" stroke-linejoin="round"><path d="M20 13c0 5-3.5 7.5-7.66 8.95a1 1 0 0 1-.67-.01C7.5 20.5 4 18 4 13V6a1 1 0 0 1 1-1c2 0 4.5-1.2 6.24-2.72a1.17 1.17 0 0 1 1.52 0C14.51 3.81 17 5 19 5a1 1 0 0 1 1 1z" /></g><text x="72" y="305" font-family="Inter" font-size="16" font-weight="400" fill="#1F1F1F">Controls</text><text x="72" y="325" font-family="Inter" font-size="13.5" font-weight="400" fill="#444746">Google Play, Chrome and Web, YouTube</text><g transform="translate(20 360) scale(1)" fill="none" stroke="#444746" stroke-width="2" stroke-linecap="round" stroke-linejoin="round"><path d="M20 10c0 4.993-5.539 10.193-7.399 11.799a1 1 0 0 1-1.202 0C9.539 20.193 4 14.993 4 10a8 8 0 0 1 16 0" /> <circle cx="12" cy="10" r="3" /></g><text x="72" y="378" font-family="Inter" font-size="16" font-weight="400" fill="#1F1F1F">Location</text></g><rect x="7" y="197" width="346" height="78" rx="12" fill="none" stroke="#E8542F" stroke-width="2.5"/><rect x="304.3" y="186" width="38.7" height="21" rx="10.5" fill="#E8542F"/><text x="323.7" y="200.5" font-family="Inter" font-size="11.5" font-weight="700" fill="#FFFFFF" text-anchor="middle">Tap</text></g></svg>
