<svg xmlns="http://www.w3.org/2000/svg" viewBox="0 0 376 354" width="376" height="354" role="img"><title>Google Play settings in Family Link, with approval needed for all content.</title><rect x="0" y="0" width="376" height="354" rx="30" fill="#1D1D1F"/><defs><clipPath id="fl-play-clip"><rect x="0" y="0" width="360" height="338" rx="23"/></clipPath></defs><g transform="translate(8 8)"><g clip-path="url(#fl-play-clip)"><rect x="0" y="0" width="360" height="338" fill="#FFFFFF"/><text x="20" y="27" font-family="Inter" font-size="14" font-weight="500" fill="#000000">9:41</text><circle cx="180" cy="21" r="6" fill="#1D1D1F"/><path d="M284 26 l7 -9 7 9 z" fill="#000000"/><path d="M302 27 l10 -11 v11 z" fill="#000000"/><rect x="320" y="15" width="8" height="13" rx="1.5" fill="#000000"/><g transform="translate(18 57) scale(1)" fill="none" stroke="#1F1F1F" stroke-width="2" stroke-linecap="round" stroke-linejoin="round"><path d="m12 19-7-7 7-7" /> <path d="M19 12H5" /></g><text x="62" y="76" font-family="Inter" font-size="21" font-weight="400" fill="#1F1F1F">Google Play</text><text x="20" y="130" font-family="Inter" font-size="14" font-weight="600" fill="#0B57D0">Purchases &amp; download approvals</text><circle cx="30" cy="178" r="9" fill="none" stroke="#0B57D0" stroke-width="2"/><circle cx="30" cy="178" r="5" fill="#0B57D0"/><text x="64" y="175" font-family="Inter" font-size="16" font-weight="400" fill="#1F1F1F">All content</text><text x="64" y="195" font-family="Inter" font-size="13.5" font-weight="400" fill="#444746">Approval needed for free and paid downlo…</text><circle cx="30" cy="242" r="9" fill="none" stroke="#444746" stroke-width="2"/><text x="64" y="248" font-family="Inter" font-size="16" font-weight="400" fill="#1F1F1F">Only paid content</text><circle cx="30" cy="298" r="9" fill="none" stroke="#444746" stroke-width="2"/><text x="64" y="304" font-family="Inter" font-size="16" font-weight="400" fill="#1F1F1F">No approval required</text></g><rect x="7" y="139" width="346" height="78" rx="12" fill="none" stroke="#E8542F" stroke-width="2.5"/><rect x="258.9" y="128" width="84.1" height="21" rx="10.5" fill="#E8542F"/><text x="300.9" y="142.5" font-family="Inter" font-size="11.5" font-weight="700" fill="#FFFFFF" text-anchor="middle">Choose this</text></g></svg>
