<svg xmlns="http://www.w3.org/2000/svg" viewBox="0 0 376 436" width="376" height="436" role="img"><title>Family Link asking you to choose an account. Use your own Google Account, not your child's.</title><rect x="0" y="0" width="376" height="436" rx="30" fill="#1D1D1F"/><defs><clipPath id="fl-sign-in-clip"><rect x="0" y="0" width="360" height="420" rx="23"/></clipPath></defs><g transform="translate(8 8)"><g clip-path="url(#fl-sign-in-clip)"><rect x="0" y="0" width="360" height="420" fill="#FFFFFF"/><text x="20" y="27" font-family="Inter" font-size="14" font-weight="500" fill="#000000">9:41</text><circle cx="180" cy="21" r="6" fill="#1D1D1F"/><path d="M284 26 l7 -9 7 9 z" fill="#000000"/><path d="M302 27 l10 -11 v11 z" fill="#000000"/><rect x="320" y="15" width="8" height="13" rx="1.5" fill="#000000"/><g transform="translate(22 112) scale(1.6667)" fill="none" stroke="#0B57D0" stroke-width="2" stroke-linecap="round" stroke-linejoin="round"><path d="M20 13c0 5-3.5 7.5-7.66 8.95a1 1 0 0 1-.67-.01C7.5 20.5 4 18 4 13V6a1 1 0 0 1 1-1c2 0 4.5-1.2 6.24-2.72a1.17 1.17 0 0 1 1.52 0C14.51 3.81 17 5 19 5a1 1 0 0 1 1 1z" /> <path d="m9 12 2 2 4-4" /></g><text x="22" y="192" font-family="Inter" font-size="24" font-weight="400" fill="#1F1F1F">Welcome to Family Link</text><text x="22" y="220" font-family="Inter" font-size="15" font-weight="400" fill="#444746">Sign in with your own Google Account to</text><text x="22" y="241" font-family="Inter" font-size="15" font-weight="400" fill="#444746">manage your child's phone.</text><circle cx="38" cy="308" r="18" fill="#7B61FF"/><text x="38" y="314.5" font-family="Inter" font-size="18" font-weight="700" fill="#FFF" text-anchor="middle">S</text><text x="72" y="305" font-family="Inter" font-size="16" font-weight="400" fill="#1F1F1F">Sam Parent</text><text x="72" y="325" font-family="Inter" font-size="13.5" font-weight="400" fill="#444746">sam.parent@gmail.com</text><rect x="208.5" y="360" width="131.5" height="40" rx="20" fill="#0B57D0"/><text x="274.3" y="385" font-family="Inter" font-size="14.5" font-weight="600" fill="#FFF" text-anchor="middle">Get started</text></g><rect x="7" y="269" width="346" height="78" rx="12" fill="none" stroke="#E8542F" stroke-width="2.5"/><rect x="223.4" y="258" width="119.6" height="21" rx="10.5" fill="#E8542F"/><text x="283.2" y="272.5" font-family="Inter" font-size="11.5" font-weight="700" fill="#FFFFFF" text-anchor="middle">Your own account</text></g></svg>
