<svg xmlns="http://www.w3.org/2000/svg" viewBox="0 0 376 611" width="376" height="611" role="img"><title>A pop-up called App &amp; Website Activity, with a blue button at the bottom to turn it on.</title><rect x="0" y="0" width="376" height="611" rx="40" fill="#1D1D1F"/><defs><clipPath id="ios-activity-sheet-clip"><rect x="0" y="0" width="360" height="595" rx="33"/></clipPath></defs><g transform="translate(8 8)"><g clip-path="url(#ios-activity-sheet-clip)"><rect x="0" y="0" width="360" height="595" fill="#F2F2F7"/><text x="34" y="30" font-family="Inter" font-size="15" font-weight="600" fill="#000000">9:41</text><rect x="134" y="11" width="92" height="27" rx="13.5" fill="#000"/><rect x="264" y="23" width="3.2" height="3" rx="0.8" fill="#000000"/><rect x="269" y="20" width="3.2" height="6" rx="0.8" fill="#000000"/><rect x="274" y="17" width="3.2" height="9" rx="0.8" fill="#000000"/><rect x="279" y="14" width="3.2" height="12" rx="0.8" fill="#000000"/><path d="M290 21.5 a9 9 0 0 1 13 0" fill="none" stroke="#000000" stroke-width="2" stroke-linecap="round"/><path d="M293 24.5 a5 5 0 0 1 7 0" fill="none" stroke="#000000" stroke-width="2" stroke-linecap="round"/><circle cx="296.5" cy="27" r="1.4" fill="#000000"/><rect x="310" y="18" width="24" height="12" rx="3.5" fill="none" stroke="#000000" stroke-opacity=".45" stroke-width="1"/><rect x="312" y="20" width="17" height="8" rx="2" fill="#000000"/><rect x="335" y="22" width="1.8" height="4" rx=".9" fill="#000000" fill-opacity=".45"/><circle cx="36" cy="66" r="16" fill="#E3E3E8"/><g transform="translate(27 57) scale(0.75)" fill="none" stroke="#3C3C43" stroke-width="2.4" stroke-linecap="round" stroke-linejoin="round"><path d="M18 6 6 18" /> <path d="m6 6 12 12" /></g><g transform="translate(24 98) scale(1.8333)" fill="none" stroke="#007AFF" stroke-width="2" stroke-linecap="round" stroke-linejoin="round"><path d="M5 22h14" /> <path d="M5 2h14" /> <path d="M17 22v-4.172a2 2 0 0 0-.586-1.414L12 12l-4.414 4.414A2 2 0 0 0 7 17.828V22" /> <path d="M7 2v4.172a2 2 0 0 0 .586 1.414L12 12l4.414-4.414A2 2 0 0 0 17 6.172V2" /></g><text x="24" y="174" font-family="Inter" font-size="20" font-weight="700" fill="#000">App &amp; Website Activity</text><text x="24" y="198" font-family="Inter" font-size="15" font-weight="400" fill="#6D6D72">Get insights about your screen time and set</text><text x="24" y="218" font-family="Inter" font-size="15" font-weight="400" fill="#6D6D72">limits for what you want to manage.</text><g transform="translate(26 254) scale(1)" fill="none" stroke="#007AFF" stroke-width="2" stroke-linecap="round" stroke-linejoin="round"><path d="M11.017 2.814a1 1 0 0 1 1.966 0l1.051 5.558a2 2 0 0 0 1.594 1.594l5.558 1.051a1 1 0 0 1 0 1.966l-5.558 1.051a2 2 0 0 0-1.594 1.594l-1.051 5.558a1 1 0 0 1-1.966 0l-1.051-5.558a2 2 0 0 0-1.594-1.594l-5.558-1.051a1 1 0 0 1 0-1.966l5.558-1.051a2 2 0 0 0 1.594-1.594z" /> <path d="M20 2v4" /> <path d="M22 4h-4" /> <circle cx="4" cy="20" r="2" /></g><text x="64" y="266" font-family="Inter" font-size="14.5" font-weight="600" fill="#000">Weekly Reports</text><text x="64" y="284" font-family="Inter" font-size="13" font-weight="400" fill="#6D6D72">Get a weekly report with insights about</text><text x="64" y="301" font-family="Inter" font-size="13" font-weight="400" fill="#6D6D72">your screen time.</text><g transform="translate(26 328) scale(1)" fill="none" stroke="#007AFF" stroke-width="2" stroke-linecap="round" stroke-linejoin="round"><path d="M20.985 12.486a9 9 0 1 1-9.473-9.472c.405-.022.617.46.402.803a6 6 0 0 0 8.268 8.268c.344-.215.825-.004.803.401" /></g><text x="64" y="340" font-family="Inter" font-size="14.5" font-weight="600" fill="#000">Downtime</text><text x="64" y="358" font-family="Inter" font-size="13" font-weight="400" fill="#6D6D72">Set a schedule for time away from the</text><text x="64" y="375" font-family="Inter" font-size="13" font-weight="400" fill="#6D6D72">screen.</text><g transform="translate(26 402) scale(1)" fill="none" stroke="#007AFF" stroke-width="2" stroke-linecap="round" stroke-linejoin="round"><path d="M5 22h14" /> <path d="M5 2h14" /> <path d="M17 22v-4.172a2 2 0 0 0-.586-1.414L12 12l-4.414 4.414A2 2 0 0 0 7 17.828V22" /> <path d="M7 2v4.172a2 2 0 0 0 .586 1.414L12 12l4.414-4.414A2 2 0 0 0 17 6.172V2" /></g><text x="64" y="414" font-family="Inter" font-size="14.5" font-weight="600" fill="#000">App Limits</text><text x="64" y="432" font-family="Inter" font-size="13" font-weight="400" fill="#6D6D72">Set daily time limits for app categories.</text><rect x="16" y="465" width="328" height="50" rx="25" fill="#007AFF"/><text x="180" y="496" font-family="Inter" font-size="15.5" font-weight="600" fill="#FFF" text-anchor="middle">Turn on App &amp; Website Activity</text><rect x="16" y="527" width="328" height="50" rx="25" fill="#FFFFFF"/><text x="180" y="558" font-family="Inter" font-size="15.5" font-weight="600" fill="#000000" text-anchor="middle">Not Now</text></g><rect x="13" y="462" width="334" height="56" rx="12" fill="none" stroke="#E8542F" stroke-width="2.5"/><rect x="298.3" y="451" width="38.7" height="21" rx="10.5" fill="#E8542F"/><text x="317.7" y="465.5" font-family="Inter" font-size="11.5" font-weight="700" fill="#FFFFFF" text-anchor="middle">Tap</text></g></svg>
