<svg xmlns="http://www.w3.org/2000/svg" viewBox="0 0 376 450" width="376" height="450" role="img"><title>Parent or Guardian Sign-In. Sign in with your own Apple Account.</title><rect x="0" y="0" width="376" height="450" rx="40" fill="#1D1D1F"/><defs><clipPath id="ios-guardian-sign-in-clip"><rect x="0" y="0" width="360" height="434" rx="33"/></clipPath></defs><g transform="translate(8 8)"><g clip-path="url(#ios-guardian-sign-in-clip)"><rect x="0" y="0" width="360" height="434" fill="#FFFFFF"/><text x="34" y="30" font-family="Inter" font-size="15" font-weight="600" fill="#000000">9:41</text><rect x="134" y="11" width="92" height="27" rx="13.5" fill="#000"/><rect x="264" y="23" width="3.2" height="3" rx="0.8" fill="#000000"/><rect x="269" y="20" width="3.2" height="6" rx="0.8" fill="#000000"/><rect x="274" y="17" width="3.2" height="9" rx="0.8" fill="#000000"/><rect x="279" y="14" width="3.2" height="12" rx="0.8" fill="#000000"/><path d="M290 21.5 a9 9 0 0 1 13 0" fill="none" stroke="#000000" stroke-width="2" stroke-linecap="round"/><path d="M293 24.5 a5 5 0 0 1 7 0" fill="none" stroke="#000000" stroke-width="2" stroke-linecap="round"/><circle cx="296.5" cy="27" r="1.4" fill="#000000"/><rect x="310" y="18" width="24" height="12" rx="3.5" fill="none" stroke="#000000" stroke-opacity=".45" stroke-width="1"/><rect x="312" y="20" width="17" height="8" rx="2" fill="#000000"/><rect x="335" y="22" width="1.8" height="4" rx=".9" fill="#000000" fill-opacity=".45"/><path d="M28 58 l-8 8 8 8" fill="none" stroke="#007AFF" stroke-width="2.6" stroke-linecap="round" stroke-linejoin="round"/><text x="34" y="71.5" font-family="Inter" font-size="15.5" font-weight="400" fill="#007AFF">Back</text><g transform="translate(152 100) scale(2.3333000000000004)" fill="none" stroke="#007AFF" stroke-width="1.8" stroke-linecap="round" stroke-linejoin="round"><path d="M16 21v-2a4 4 0 0 0-4-4H6a4 4 0 0 0-4 4v2" /> <path d="M16 3.128a4 4 0 0 1 0 7.744" /> <path d="M22 21v-2a4 4 0 0 0-3-3.87" /> <circle cx="9" cy="7" r="4" /></g><text x="180" y="192" font-family="Inter" font-size="25" font-weight="800" fill="#000" text-anchor="middle">Parent or Guardian</text><text x="180" y="222" font-family="Inter" font-size="25" font-weight="800" fill="#000" text-anchor="middle">Sign-In</text><text x="180" y="254" font-family="Inter" font-size="15" font-weight="400" fill="#000" text-anchor="middle">Sign in to your Apple Account to set up this</text><text x="180" y="274" font-family="Inter" font-size="15" font-weight="400" fill="#000" text-anchor="middle">device for a child aged 12 or younger.</text><rect x="16" y="308" width="328" height="46" rx="23" fill="#E9E9EE"/><text x="36" y="336.5" font-family="Inter" font-size="15" font-weight="400" fill="#A1A1A6">Email or Phone Number</text><rect x="16" y="366" width="328" height="50" rx="25" fill="#E9E9EE"/><text x="180" y="397" font-family="Inter" font-size="15.5" font-weight="600" fill="#000000" text-anchor="middle">Continue</text></g><rect x="13" y="305" width="334" height="52" rx="12" fill="none" stroke="#E8542F" stroke-width="2.5"/><rect x="182.6" y="294" width="154.4" height="21" rx="10.5" fill="#E8542F"/><text x="259.8" y="308.5" font-family="Inter" font-size="11.5" font-weight="700" fill="#FFFFFF" text-anchor="middle">Your own Apple Account</text></g></svg>
