<svg xmlns="http://www.w3.org/2000/svg" viewBox="0 0 376 804" width="376" height="804" role="img"><title>Choose Apps. Every category from Social to Other is ticked. All Apps &amp; Categories at the top and Websites at the bottom are not ticked. Next is at the top right.</title><rect x="0" y="0" width="376" height="804" rx="40" fill="#1D1D1F"/><defs><clipPath id="ios-choose-apps-clip"><rect x="0" y="0" width="360" height="788" rx="33"/></clipPath></defs><g transform="translate(8 8)"><g clip-path="url(#ios-choose-apps-clip)"><rect x="0" y="0" width="360" height="788" fill="#F2F2F7"/><text x="34" y="30" font-family="Inter" font-size="15" font-weight="600" fill="#000000">9:41</text><rect x="134" y="11" width="92" height="27" rx="13.5" fill="#000"/><rect x="264" y="23" width="3.2" height="3" rx="0.8" fill="#000000"/><rect x="269" y="20" width="3.2" height="6" rx="0.8" fill="#000000"/><rect x="274" y="17" width="3.2" height="9" rx="0.8" fill="#000000"/><rect x="279" y="14" width="3.2" height="12" rx="0.8" fill="#000000"/><path d="M290 21.5 a9 9 0 0 1 13 0" fill="none" stroke="#000000" stroke-width="2" stroke-linecap="round"/><path d="M293 24.5 a5 5 0 0 1 7 0" fill="none" stroke="#000000" stroke-width="2" stroke-linecap="round"/><circle cx="296.5" cy="27" r="1.4" fill="#000000"/><rect x="310" y="18" width="24" height="12" rx="3.5" fill="none" stroke="#000000" stroke-opacity=".45" stroke-width="1"/><rect x="312" y="20" width="17" height="8" rx="2" fill="#000000"/><rect x="335" y="22" width="1.8" height="4" rx=".9" fill="#000000" fill-opacity=".45"/><circle cx="36" cy="66" r="16" fill="#E3E3E8"/><g transform="translate(27 57) scale(0.75)" fill="none" stroke="#3C3C43" stroke-width="2.4" stroke-linecap="round" stroke-linejoin="round"><path d="M18 6 6 18" /> <path d="m6 6 12 12" /></g><rect x="280.6" y="50" width="63.4" height="32" rx="16" fill="#007AFF"/><text x="312.3" y="71" font-family="Inter" font-size="15" font-weight="600" fill="#FFF" text-anchor="middle">Next</text><text x="180" y="71.5" font-family="Inter" font-size="15.5" font-weight="600" fill="#000" text-anchor="middle">Choose Apps</text><text x="32" y="108" font-family="Inter" font-size="12.5" font-weight="400" fill="#6D6D72">Most Used Apps, Categories and Websites</text><rect x="16" y="120" width="328" height="644" rx="12" fill="#FFFFFF"/><circle cx="42" cy="143" r="10.5" fill="none" stroke="#C7C7CC" stroke-width="1.6"/><rect x="64" y="128" width="30" height="30" rx="7" fill="#5E5CE6"/><g transform="translate(69.7 133.7) scale(0.775)" fill="none" stroke="#FFFFFF" stroke-width="2.3" stroke-linecap="round" stroke-linejoin="round"><rect width="7" height="7" x="3" y="3" rx="1" /> <rect width="7" height="7" x="14" y="3" rx="1" /> <rect width="7" height="7" x="14" y="14" rx="1" /> <rect width="7" height="7" x="3" y="14" rx="1" /></g><text x="107" y="148.5" font-family="Inter" font-size="15" font-weight="400" fill="#000000">All Apps &amp; Categories</text><rect x="107" y="165.5" width="237" height="0.6" fill="#D8D8DC"/><circle cx="42" cy="189" r="10.5" fill="#007AFF"/><path d="M37.5 189 l3.2 3.4 6 -6.5" fill="none" stroke="#FFF" stroke-width="2.2" stroke-linecap="round" stroke-linejoin="round"/><rect x="64" y="174" width="30" height="30" rx="7" fill="#FF2D55"/><g transform="translate(69.7 179.7) scale(0.775)" fill="none" stroke="#FFFFFF" stroke-width="2.3" stroke-linecap="round" stroke-linejoin="round"><path d="M18 21a8 8 0 0 0-16 0" /> <circle cx="10" cy="8" r="5" /> <path d="M22 20c0-3.37-2-6.5-4-8a5 5 0 0 0-.45-8.3" /></g><path d="M322 183.5 l5.5 5.5 -5.5 5.5" fill="none" stroke="#C4C4C7" stroke-width="2.2" stroke-linecap="round" stroke-linejoin="round"/><text x="310" y="194" font-family="Inter" font-size="14.5" font-weight="400" fill="#8A8A8E" text-anchor="end">All</text><text x="107" y="194.5" font-family="Inter" font-size="15" font-weight="400" fill="#000000">Social</text><rect x="107" y="211.5" width="237" height="0.6" fill="#D8D8DC"/><circle cx="42" cy="235" r="10.5" fill="#007AFF"/><path d="M37.5 235 l3.2 3.4 6 -6.5" fill="none" stroke="#FFF" stroke-width="2.2" stroke-linecap="round" stroke-linejoin="round"/><rect x="64" y="220" width="30" height="30" rx="7" fill="#007AFF"/><g transform="translate(69.7 225.7) scale(0.775)" fill="none" stroke="#FFFFFF" stroke-width="2.3" stroke-linecap="round" stroke-linejoin="round"><line x1="6" x2="10" y1="11" y2="11" /> <line x1="8" x2="8" y1="9" y2="13" /> <line x1="15" x2="15.01" y1="12" y2="12" /> <line x1="18" x2="18.01" y1="10" y2="10" /> <path d="M17.32 5H6.68a4 4 0 0 0-3.978 3.59c-.006.052-.01.101-.017.152C2.604 9.416 2 14.456 2 16a3 3 0 0 0 3 3c1 0 1.5-.5 2-1l1.414-1.414A2 2 0 0 1 9.828 16h4.344a2 2 0 0 1 1.414.586L17 18c.5.5 1 1 2 1a3 3 0 0 0 3-3c0-1.545-.604-6.584-.685-7.258-.007-.05-.011-.1-.017-.151A4 4 0 0 0 17.32 5z" /></g><path d="M322 229.5 l5.5 5.5 -5.5 5.5" fill="none" stroke="#C4C4C7" stroke-width="2.2" stroke-linecap="round" stroke-linejoin="round"/><text x="310" y="240" font-family="Inter" font-size="14.5" font-weight="400" fill="#8A8A8E" text-anchor="end">All</text><text x="107" y="240.5" font-family="Inter" font-size="15" font-weight="400" fill="#000000">Games</text><rect x="107" y="257.5" width="237" height="0.6" fill="#D8D8DC"/><circle cx="42" cy="281" r="10.5" fill="#007AFF"/><path d="M37.5 281 l3.2 3.4 6 -6.5" fill="none" stroke="#FFF" stroke-width="2.2" stroke-linecap="round" stroke-linejoin="round"/><rect x="64" y="266" width="30" height="30" rx="7" fill="#FF3B30"/><g transform="translate(69.7 271.7) scale(0.775)" fill="none" stroke="#FFFFFF" stroke-width="2.3" stroke-linecap="round" stroke-linejoin="round"><path d="m12.296 3.464 3.02 3.956" /> <path d="M20.2 6 3 11l-.9-2.4c-.3-1.1.3-2.2 1.3-2.5l13.5-4c1.1-.3 2.2.3 2.5 1.3z" /> <path d="M3 11h18v8a2 2 0 0 1-2 2H5a2 2 0 0 1-2-2z" /> <path d="m6.18 5.276 3.1 3.899" /></g><path d="M322 275.5 l5.5 5.5 -5.5 5.5" fill="none" stroke="#C4C4C7" stroke-width="2.2" stroke-linecap="round" stroke-linejoin="round"/><text x="310" y="286" font-family="Inter" font-size="14.5" font-weight="400" fill="#8A8A8E" text-anchor="end">All</text><text x="107" y="286.5" font-family="Inter" font-size="15" font-weight="400" fill="#000000">Entertainment</text><rect x="107" y="303.5" width="237" height="0.6" fill="#D8D8DC"/><circle cx="42" cy="327" r="10.5" fill="#007AFF"/><path d="M37.5 327 l3.2 3.4 6 -6.5" fill="none" stroke="#FFF" stroke-width="2.2" stroke-linecap="round" stroke-linejoin="round"/><rect x="64" y="312" width="30" height="30" rx="7" fill="#FF9500"/><g transform="translate(69.7 317.7) scale(0.775)" fill="none" stroke="#FFFFFF" stroke-width="2.3" stroke-linecap="round" stroke-linejoin="round"><path d="M12 22a1 1 0 0 1 0-20 10 9 0 0 1 10 9 5 5 0 0 1-5 5h-2.25a1.75 1.75 0 0 0-1.4 2.8l.3.4a1.75 1.75 0 0 1-1.4 2.8z" /> <circle cx="13.5" cy="6.5" r=".5" fill="currentColor" /> <circle cx="17.5" cy="10.5" r=".5" fill="currentColor" /> <circle cx="6.5" cy="12.5" r=".5" fill="currentColor" /> <circle cx="8.5" cy="7.5" r=".5" fill="currentColor" /></g><path d="M322 321.5 l5.5 5.5 -5.5 5.5" fill="none" stroke="#C4C4C7" stroke-width="2.2" stroke-linecap="round" stroke-linejoin="round"/><text x="310" y="332" font-family="Inter" font-size="14.5" font-weight="400" fill="#8A8A8E" text-anchor="end">All</text><text x="107" y="332.5" font-family="Inter" font-size="15" font-weight="400" fill="#000000">Creativity</text><rect x="107" y="349.5" width="237" height="0.6" fill="#D8D8DC"/><circle cx="42" cy="373" r="10.5" fill="#007AFF"/><path d="M37.5 373 l3.2 3.4 6 -6.5" fill="none" stroke="#FFF" stroke-width="2.2" stroke-linecap="round" stroke-linejoin="round"/><rect x="64" y="358" width="30" height="30" rx="7" fill="#007AFF"/><g transform="translate(69.7 363.7) scale(0.775)" fill="none" stroke="#FFFFFF" stroke-width="2.3" stroke-linecap="round" stroke-linejoin="round"><path d="M16 20V4a2 2 0 0 0-2-2h-4a2 2 0 0 0-2 2v16" /> <rect width="20" height="14" x="2" y="6" rx="2" /></g><path d="M322 367.5 l5.5 5.5 -5.5 5.5" fill="none" stroke="#C4C4C7" stroke-width="2.2" stroke-linecap="round" stroke-linejoin="round"/><text x="310" y="378" font-family="Inter" font-size="14.5" font-weight="400" fill="#8A8A8E" text-anchor="end">All</text><text x="107" y="378.5" font-family="Inter" font-size="15" font-weight="400" fill="#000000">Productivity &amp; Finance</text><rect x="107" y="395.5" width="237" height="0.6" fill="#D8D8DC"/><circle cx="42" cy="419" r="10.5" fill="#007AFF"/><path d="M37.5 419 l3.2 3.4 6 -6.5" fill="none" stroke="#FFF" stroke-width="2.2" stroke-linecap="round" stroke-linejoin="round"/><rect x="64" y="404" width="30" height="30" rx="7" fill="#34C759"/><g transform="translate(69.7 409.7) scale(0.775)" fill="none" stroke="#FFFFFF" stroke-width="2.3" stroke-linecap="round" stroke-linejoin="round"><path d="M21.42 10.922a1 1 0 0 0-.019-1.838L12.83 5.18a2 2 0 0 0-1.66 0L2.6 9.08a1 1 0 0 0 0 1.832l8.57 3.908a2 2 0 0 0 1.66 0z" /> <path d="M22 10v6" /> <path d="M6 12.5V16a6 3 0 0 0 12 0v-3.5" /></g><path d="M322 413.5 l5.5 5.5 -5.5 5.5" fill="none" stroke="#C4C4C7" stroke-width="2.2" stroke-linecap="round" stroke-linejoin="round"/><text x="310" y="424" font-family="Inter" font-size="14.5" font-weight="400" fill="#8A8A8E" text-anchor="end">All</text><text x="107" y="424.5" font-family="Inter" font-size="15" font-weight="400" fill="#000000">Education</text><rect x="107" y="441.5" width="237" height="0.6" fill="#D8D8DC"/><circle cx="42" cy="465" r="10.5" fill="#007AFF"/><path d="M37.5 465 l3.2 3.4 6 -6.5" fill="none" stroke="#FFF" stroke-width="2.2" stroke-linecap="round" stroke-linejoin="round"/><rect x="64" y="450" width="30" height="30" rx="7" fill="#5AC8FA"/><g transform="translate(69.7 455.7) scale(0.775)" fill="none" stroke="#FFFFFF" stroke-width="2.3" stroke-linecap="round" stroke-linejoin="round"><path d="M12 5v16" /> <path d="M20.001 19A2 2 0 0022 17V5a2 2 0 00-1.999-2L16 3.002A5 5 0 0012 5a5 5 0 00-4-2H4a2 2 0 00-2 2v12a2 2 0 001.999 2H8a5 5 0 014 2 5 5 0 014-2z" /></g><path d="M322 459.5 l5.5 5.5 -5.5 5.5" fill="none" stroke="#C4C4C7" stroke-width="2.2" stroke-linecap="round" stroke-linejoin="round"/><text x="310" y="470" font-family="Inter" font-size="14.5" font-weight="400" fill="#8A8A8E" text-anchor="end">All</text><text x="107" y="470.5" font-family="Inter" font-size="15" font-weight="400" fill="#000000">Information &amp; Reading</text><rect x="107" y="487.5" width="237" height="0.6" fill="#D8D8DC"/><circle cx="42" cy="511" r="10.5" fill="#007AFF"/><path d="M37.5 511 l3.2 3.4 6 -6.5" fill="none" stroke="#FFF" stroke-width="2.2" stroke-linecap="round" stroke-linejoin="round"/><rect x="64" y="496" width="30" height="30" rx="7" fill="#FF2D55"/><g transform="translate(69.7 501.7) scale(0.775)" fill="none" stroke="#FFFFFF" stroke-width="2.3" stroke-linecap="round" stroke-linejoin="round"><path d="M2 9.5a5.5 5.5 0 0 1 9.591-3.676.56.56 0 0 0 .818 0A5.49 5.49 0 0 1 22 9.5c0 2.29-1.5 4-3 5.5l-5.492 5.313a2 2 0 0 1-3 .019L5 15c-1.5-1.5-3-3.2-3-5.5" /> <path d="M3.22 13H9.5l.5-1 2 4.5 2-7 1.5 3.5h5.27" /></g><path d="M322 505.5 l5.5 5.5 -5.5 5.5" fill="none" stroke="#C4C4C7" stroke-width="2.2" stroke-linecap="round" stroke-linejoin="round"/><text x="310" y="516" font-family="Inter" font-size="14.5" font-weight="400" fill="#8A8A8E" text-anchor="end">All</text><text x="107" y="516.5" font-family="Inter" font-size="15" font-weight="400" fill="#000000">Health &amp; Fitness</text><rect x="107" y="533.5" width="237" height="0.6" fill="#D8D8DC"/><circle cx="42" cy="557" r="10.5" fill="#007AFF"/><path d="M37.5 557 l3.2 3.4 6 -6.5" fill="none" stroke="#FFF" stroke-width="2.2" stroke-linecap="round" stroke-linejoin="round"/><rect x="64" y="542" width="30" height="30" rx="7" fill="#8E8E93"/><g transform="translate(69.7 547.7) scale(0.775)" fill="none" stroke="#FFFFFF" stroke-width="2.3" stroke-linecap="round" stroke-linejoin="round"><path d="M14.7 6.3a1 1 0 0 0 0 1.4l1.6 1.6a1 1 0 0 0 1.4 0l3.106-3.105c.32-.322.863-.22.983.218a6 6 0 0 1-8.259 7.057l-7.91 7.91a1 1 0 0 1-2.999-3l7.91-7.91a6 6 0 0 1 7.057-8.259c.438.12.54.662.219.984z" /></g><path d="M322 551.5 l5.5 5.5 -5.5 5.5" fill="none" stroke="#C4C4C7" stroke-width="2.2" stroke-linecap="round" stroke-linejoin="round"/><text x="310" y="562" font-family="Inter" font-size="14.5" font-weight="400" fill="#8A8A8E" text-anchor="end">All</text><text x="107" y="562.5" font-family="Inter" font-size="15" font-weight="400" fill="#000000">Utilities</text><rect x="107" y="579.5" width="237" height="0.6" fill="#D8D8DC"/><circle cx="42" cy="603" r="10.5" fill="#007AFF"/><path d="M37.5 603 l3.2 3.4 6 -6.5" fill="none" stroke="#FFF" stroke-width="2.2" stroke-linecap="round" stroke-linejoin="round"/><rect x="64" y="588" width="30" height="30" rx="7" fill="#FF9500"/><g transform="translate(69.7 593.7) scale(0.775)" fill="none" stroke="#FFFFFF" stroke-width="2.3" stroke-linecap="round" stroke-linejoin="round"><path d="m2.05 2.05 1.099-.028a1 1 0 0 1 1.008.815l2.69 14.347A1 1 0 0 0 7.83 18H18" /> <path d="M4.563 5h16.435a1 1 0 0 1 .981 1.204l-1.026 6.226A2 2 0 0 1 18.962 14H6.25" /> <circle cx="18" cy="20" r="2" /> <circle cx="8" cy="20" r="2" /></g><path d="M322 597.5 l5.5 5.5 -5.5 5.5" fill="none" stroke="#C4C4C7" stroke-width="2.2" stroke-linecap="round" stroke-linejoin="round"/><text x="310" y="608" font-family="Inter" font-size="14.5" font-weight="400" fill="#8A8A8E" text-anchor="end">All</text><text x="107" y="608.5" font-family="Inter" font-size="15" font-weight="400" fill="#000000">Shopping &amp; Food</text><rect x="107" y="625.5" width="237" height="0.6" fill="#D8D8DC"/><circle cx="42" cy="649" r="10.5" fill="#007AFF"/><path d="M37.5 649 l3.2 3.4 6 -6.5" fill="none" stroke="#FFF" stroke-width="2.2" stroke-linecap="round" stroke-linejoin="round"/><rect x="64" y="634" width="30" height="30" rx="7" fill="#34C759"/><g transform="translate(69.7 639.7) scale(0.775)" fill="none" stroke="#FFFFFF" stroke-width="2.3" stroke-linecap="round" stroke-linejoin="round"><path d="M17.8 19.2 16 11l3.5-3.5C21 6 21.5 4 21 3c-1-.5-3 0-4.5 1.5L13 8 4.8 6.2c-.5-.1-.9.1-1.1.5l-.3.5c-.2.5-.1 1 .3 1.3L9 12l-2 3H4l-1 1 3 2 2 3 1-1v-3l3-2 3.5 5.3c.3.4.8.5 1.3.3l.5-.2c.4-.3.6-.7.5-1.2z" /></g><path d="M322 643.5 l5.5 5.5 -5.5 5.5" fill="none" stroke="#C4C4C7" stroke-width="2.2" stroke-linecap="round" stroke-linejoin="round"/><text x="310" y="654" font-family="Inter" font-size="14.5" font-weight="400" fill="#8A8A8E" text-anchor="end">All</text><text x="107" y="654.5" font-family="Inter" font-size="15" font-weight="400" fill="#000000">Travel</text><rect x="107" y="671.5" width="237" height="0.6" fill="#D8D8DC"/><circle cx="42" cy="695" r="10.5" fill="#007AFF"/><path d="M37.5 695 l3.2 3.4 6 -6.5" fill="none" stroke="#FFF" stroke-width="2.2" stroke-linecap="round" stroke-linejoin="round"/><rect x="64" y="680" width="30" height="30" rx="7" fill="#8E8E93"/><g transform="translate(69.7 685.7) scale(0.775)" fill="none" stroke="#FFFFFF" stroke-width="2.3" stroke-linecap="round" stroke-linejoin="round"><circle cx="12" cy="12" r="1" /> <circle cx="19" cy="12" r="1" /> <circle cx="5" cy="12" r="1" /></g><path d="M322 689.5 l5.5 5.5 -5.5 5.5" fill="none" stroke="#C4C4C7" stroke-width="2.2" stroke-linecap="round" stroke-linejoin="round"/><text x="310" y="700" font-family="Inter" font-size="14.5" font-weight="400" fill="#8A8A8E" text-anchor="end">All</text><text x="107" y="700.5" font-family="Inter" font-size="15" font-weight="400" fill="#000000">Other</text><rect x="107" y="717.5" width="237" height="0.6" fill="#D8D8DC"/><circle cx="42" cy="741" r="10.5" fill="none" stroke="#C7C7CC" stroke-width="1.6"/><rect x="64" y="726" width="30" height="30" rx="7" fill="#8E8E93"/><g transform="translate(69.7 731.7) scale(0.775)" fill="none" stroke="#FFFFFF" stroke-width="2.3" stroke-linecap="round" stroke-linejoin="round"><circle cx="12" cy="12" r="10" /> <path d="M12 2a14.5 14.5 0 0 0 0 20 14.5 14.5 0 0 0 0-20" /> <path d="M2 12h20" /></g><path d="M322 735.5 l5.5 5.5 -5.5 5.5" fill="none" stroke="#C4C4C7" stroke-width="2.2" stroke-linecap="round" stroke-linejoin="round"/><text x="107" y="746.5" font-family="Inter" font-size="15" font-weight="400" fill="#000000">Websites</text></g><rect x="277.6" y="47" width="69.4" height="38" rx="12" fill="none" stroke="#E8542F" stroke-width="2.5"/><rect x="269.1" y="36" width="67.9" height="21" rx="10.5" fill="#E8542F"/><text x="303" y="50.5" font-family="Inter" font-size="11.5" font-weight="700" fill="#FFFFFF" text-anchor="middle">Then tap</text><rect x="13" y="117" width="334" height="52" rx="12" fill="none" stroke="#C62828" stroke-width="2.5" stroke-dasharray="6 4"/><rect x="249.6" y="106" width="87.4" height="21" rx="10.5" fill="#C62828"/><text x="293.3" y="120.5" font-family="Inter" font-size="11.5" font-weight="700" fill="#FFFFFF" text-anchor="middle">✕  Don't tick</text><rect x="13" y="163" width="334" height="558" rx="12" fill="none" stroke="#E8542F" stroke-width="2.5"/><rect x="204.1" y="152" width="132.9" height="21" rx="10.5" fill="#E8542F"/><text x="270.6" y="166.5" font-family="Inter" font-size="11.5" font-weight="700" fill="#FFFFFF" text-anchor="middle">Tick every category</text><rect x="13" y="715" width="334" height="52" rx="12" fill="none" stroke="#C62828" stroke-width="2.5" stroke-dasharray="6 4"/><rect x="249.6" y="704" width="87.4" height="21" rx="10.5" fill="#C62828"/><text x="293.3" y="718.5" font-family="Inter" font-size="11.5" font-weight="700" fill="#FFFFFF" text-anchor="middle">✕  Don't tick</text></g></svg>
