<svg xmlns="http://www.w3.org/2000/svg" viewBox="0 0 376 300" width="376" height="300" role="img"><title>iTunes &amp; App Store Purchases, with Installing Apps, Deleting Apps and In-app Purchases all set to Don't Allow.</title><rect x="0" y="0" width="376" height="300" rx="40" fill="#1D1D1F"/><defs><clipPath id="ios-purchases-clip"><rect x="0" y="0" width="360" height="284" rx="33"/></clipPath></defs><g transform="translate(8 8)"><g clip-path="url(#ios-purchases-clip)"><rect x="0" y="0" width="360" height="284" fill="#F2F2F7"/><text x="34" y="30" font-family="Inter" font-size="15" font-weight="600" fill="#000000">9:41</text><rect x="134" y="11" width="92" height="27" rx="13.5" fill="#000"/><rect x="264" y="23" width="3.2" height="3" rx="0.8" fill="#000000"/><rect x="269" y="20" width="3.2" height="6" rx="0.8" fill="#000000"/><rect x="274" y="17" width="3.2" height="9" rx="0.8" fill="#000000"/><rect x="279" y="14" width="3.2" height="12" rx="0.8" fill="#000000"/><path d="M290 21.5 a9 9 0 0 1 13 0" fill="none" stroke="#000000" stroke-width="2" stroke-linecap="round"/><path d="M293 24.5 a5 5 0 0 1 7 0" fill="none" stroke="#000000" stroke-width="2" stroke-linecap="round"/><circle cx="296.5" cy="27" r="1.4" fill="#000000"/><rect x="310" y="18" width="24" height="12" rx="3.5" fill="none" stroke="#000000" stroke-opacity=".45" stroke-width="1"/><rect x="312" y="20" width="17" height="8" rx="2" fill="#000000"/><rect x="335" y="22" width="1.8" height="4" rx=".9" fill="#000000" fill-opacity=".45"/><path d="M28 58 l-8 8 8 8" fill="none" stroke="#007AFF" stroke-width="2.6" stroke-linecap="round" stroke-linejoin="round"/><text x="180" y="71.5" font-family="Inter" font-size="15.5" font-weight="600" fill="#000" text-anchor="middle">iTunes &amp; App Store Purchases</text><text x="32" y="112" font-family="Inter" font-size="12.5" font-weight="400" fill="#6D6D72">Store Purchases &amp; Re-Downloads</text><rect x="16" y="122" width="328" height="138" rx="12" fill="#FFFFFF"/><path d="M322 139.5 l5.5 5.5 -5.5 5.5" fill="none" stroke="#C4C4C7" stroke-width="2.2" stroke-linecap="round" stroke-linejoin="round"/><text x="310" y="150" font-family="Inter" font-size="14.5" font-weight="400" fill="#8A8A8E" text-anchor="end">Don't Allow</text><text x="32" y="150.5" font-family="Inter" font-size="15" font-weight="400" fill="#000000">Installing Apps</text><rect x="32" y="167.5" width="312" height="0.6" fill="#D8D8DC"/><path d="M322 185.5 l5.5 5.5 -5.5 5.5" fill="none" stroke="#C4C4C7" stroke-width="2.2" stroke-linecap="round" stroke-linejoin="round"/><text x="310" y="196" font-family="Inter" font-size="14.5" font-weight="400" fill="#8A8A8E" text-anchor="end">Don't Allow</text><text x="32" y="196.5" font-family="Inter" font-size="15" font-weight="400" fill="#000000">Deleting Apps</text><rect x="32" y="213.5" width="312" height="0.6" fill="#D8D8DC"/><path d="M322 231.5 l5.5 5.5 -5.5 5.5" fill="none" stroke="#C4C4C7" stroke-width="2.2" stroke-linecap="round" stroke-linejoin="round"/><text x="310" y="242" font-family="Inter" font-size="14.5" font-weight="400" fill="#8A8A8E" text-anchor="end">Don't Allow</text><text x="32" y="242.5" font-family="Inter" font-size="15" font-weight="400" fill="#000000">In-app Purchases</text></g><rect x="13" y="119" width="334" height="144" rx="12" fill="none" stroke="#E8542F" stroke-width="2.5"/><rect x="187.9" y="253" width="149.1" height="21" rx="10.5" fill="#E8542F"/><text x="262.5" y="267.5" font-family="Inter" font-size="11.5" font-weight="700" fill="#FFFFFF" text-anchor="middle">Set all 3 to Don't Allow</text></g></svg>
