<svg xmlns="http://www.w3.org/2000/svg" viewBox="0 0 1800 2279" width="1800" height="2279"><rect width="1800" height="2279" fill="#FFFAF3"/><text x="60" y="70" font-family="Inter" font-size="20" font-weight="700" fill="#C4412A">The SMART Study · set-up guide</text><text x="60" y="118" font-family="Inter" font-size="40" font-weight="800" fill="#003A69">Route C: Your child has an Android phone, and you have an Android or iPhone</text><rect x="30" y="150" width="1740" height="250" rx="24" fill="#FFFFFF"/><circle cx="84" cy="180" r="22" fill="#FFC845"/><text x="84" y="188" font-family="Inter" font-size="22" font-weight="800" fill="#003A69" text-anchor="middle">1</text><text x="120" y="190" font-family="Inter" font-size="26" font-weight="800" fill="#003A69">Get the Family Link app</text><text x="120" y="222" font-family="Inter" font-size="15" font-weight="400" fill="#4A5B70">2 minutes · on your phone</text><text x="60" y="256" font-family="Inter" font-size="16" font-weight="400" fill="#12263F">1. Open the Play Store (Android) or the App Store</text><text x="84" y="278" font-family="Inter" font-size="16" font-weight="400" fill="#12263F">(iPhone).</text><text x="60" y="308" font-family="Inter" font-size="16" font-weight="400" fill="#12263F">2. Search for Family Link and install it.</text><text x="60" y="338" font-family="Inter" font-size="16" font-weight="400" fill="#12263F">3. Open it and sign in with your own Google Account</text><text x="84" y="360" font-family="Inter" font-size="16" font-weight="400" fill="#12263F">(often ending in @gmail.com).</text><g transform="translate(580 170) scale(0.62)"><rect x="0" y="0" width="376" height="310" rx="30" fill="#1D1D1F"/><defs><clipPath id="store-family-link-clip"><rect x="0" y="0" width="360" height="294" rx="23"/></clipPath></defs><g transform="translate(8 8)"><g clip-path="url(#store-family-link-clip)"><rect x="0" y="0" width="360" height="294" fill="#FFFFFF"/><text x="20" y="27" font-family="Inter" font-size="14" font-weight="500" fill="#000000">9:41</text><circle cx="180" cy="21" r="6" fill="#1D1D1F"/><path d="M284 26 l7 -9 7 9 z" fill="#000000"/><path d="M302 27 l10 -11 v11 z" fill="#000000"/><rect x="320" y="15" width="8" height="13" rx="1.5" fill="#000000"/><rect x="16" y="46" width="328" height="48" rx="24" fill="#F0F4F9"/><g transform="translate(30 58) scale(0.9167000000000001)" fill="none" stroke="#444746" stroke-width="2" stroke-linecap="round" stroke-linejoin="round"><path d="m12 19-7-7 7-7" /> <path d="M19 12H5" /></g><text x="66" y="76" font-family="Inter" font-size="16" font-weight="400" fill="#1F1F1F">family link</text><g transform="translate(306 59) scale(0.8332999999999999)" fill="none" stroke="#444746" stroke-width="2" stroke-linecap="round" stroke-linejoin="round"><path d="M18 6 6 18" /> <path d="m6 6 12 12" /></g><rect x="20" y="116" width="60" height="60" rx="14" fill="#FFF" stroke="#E1E3E1"/><g transform="translate(32 128) scale(1.5)" fill="none" stroke="#1E8E3E" stroke-width="2" stroke-linecap="round" stroke-linejoin="round"><path d="M20 13c0 5-3.5 7.5-7.66 8.95a1 1 0 0 1-.67-.01C7.5 20.5 4 18 4 13V6a1 1 0 0 1 1-1c2 0 4.5-1.2 6.24-2.72a1.17 1.17 0 0 1 1.52 0C14.51 3.81 17 5 19 5a1 1 0 0 1 1 1z" /> <path d="m9 12 2 2 4-4" /></g><text x="94" y="140" font-family="Inter" font-size="16" font-weight="600" fill="#1F1F1F">Google Family Link</text><text x="94" y="160" font-family="Inter" font-size="13" font-weight="400" fill="#444746">Google LLC · Parental control</text><rect x="20" y="194" width="320" height="42" rx="21" fill="#01875F"/><text x="180" y="220" font-family="Inter" font-size="15" font-weight="600" fill="#FFF" text-anchor="middle">Install</text><text x="20" y="268" font-family="Inter" font-size="13" font-weight="400" fill="#444746">Set screen time limits · Manage apps</text></g><rect x="17" y="191" width="326" height="48" rx="12" fill="none" stroke="#E8542F" stroke-width="2.5"/><rect x="274.8" y="180" width="58.2" height="21" rx="10.5" fill="#E8542F"/><text x="303.9" y="194.5" font-family="Inter" font-size="11.5" font-weight="700" fill="#FFFFFF" text-anchor="middle">Install</text></g></g><rect x="30" y="430" width="1740" height="354" rx="24" fill="#FFFFFF"/><circle cx="84" cy="460" r="22" fill="#FFC845"/><text x="84" y="468" font-family="Inter" font-size="22" font-weight="800" fill="#003A69" text-anchor="middle">2</text><text x="120" y="470" font-family="Inter" font-size="26" font-weight="800" fill="#003A69">Link your child's account</text><text x="120" y="502" font-family="Inter" font-size="15" font-weight="400" fill="#4A5B70">10 minutes · on both phones</text><text x="60" y="536" font-family="Inter" font-size="16" font-weight="400" fill="#12263F">1. On your child's phone, open Settings, tap Google,</text><text x="84" y="558" font-family="Inter" font-size="16" font-weight="400" fill="#12263F">then All services.</text><text x="60" y="588" font-family="Inter" font-size="16" font-weight="400" fill="#12263F">2. Under Kids &amp; family, tap Parental controls.</text><text x="60" y="618" font-family="Inter" font-size="16" font-weight="400" fill="#12263F">3. Tap Get started (or Let's do this) and choose your</text><text x="84" y="640" font-family="Inter" font-size="16" font-weight="400" fill="#12263F">child's account.</text><text x="60" y="670" font-family="Inter" font-size="16" font-weight="400" fill="#12263F">4. Follow the prompts, entering your own Google Account</text><text x="84" y="692" font-family="Inter" font-size="16" font-weight="400" fill="#12263F">when asked for a parent.</text><text x="60" y="722" font-family="Inter" font-size="16" font-weight="400" fill="#12263F">5. Your child taps to agree, and enters their own</text><text x="84" y="744" font-family="Inter" font-size="16" font-weight="400" fill="#12263F">password to confirm.</text><g transform="translate(580 450) scale(0.62)"><rect x="0" y="0" width="376" height="398" rx="30" fill="#1D1D1F"/><defs><clipPath id="and-parental-controls-clip"><rect x="0" y="0" width="360" height="382" rx="23"/></clipPath></defs><g transform="translate(8 8)"><g clip-path="url(#and-parental-controls-clip)"><rect x="0" y="0" width="360" height="382" fill="#FFFFFF"/><text x="20" y="27" font-family="Inter" font-size="14" font-weight="500" fill="#000000">9:41</text><circle cx="180" cy="21" r="6" fill="#1D1D1F"/><path d="M284 26 l7 -9 7 9 z" fill="#000000"/><path d="M302 27 l10 -11 v11 z" fill="#000000"/><rect x="320" y="15" width="8" height="13" rx="1.5" fill="#000000"/><g transform="translate(18 57) scale(1)" fill="none" stroke="#1F1F1F" stroke-width="2" stroke-linecap="round" stroke-linejoin="round"><path d="m12 19-7-7 7-7" /> <path d="M19 12H5" /></g><text x="62" y="76" font-family="Inter" font-size="21" font-weight="400" fill="#1F1F1F">All services</text><text x="20" y="130" font-family="Inter" font-size="14" font-weight="600" fill="#0B57D0">Kids &amp; family</text><g transform="translate(20 166) scale(1)" fill="none" stroke="#444746" stroke-width="2" stroke-linecap="round" stroke-linejoin="round"><path d="M20 13c0 5-3.5 7.5-7.66 8.95a1 1 0 0 1-.67-.01C7.5 20.5 4 18 4 13V6a1 1 0 0 1 1-1c2 0 4.5-1.2 6.24-2.72a1.17 1.17 0 0 1 1.52 0C14.51 3.81 17 5 19 5a1 1 0 0 1 1 1z" /> <path d="m9 12 2 2 4-4" /></g><text x="72" y="175" font-family="Inter" font-size="16" font-weight="400" fill="#1F1F1F">Parental controls</text><text x="72" y="195" font-family="Inter" font-size="13.5" font-weight="400" fill="#444746">Set up Family Link</text><g transform="translate(20 230) scale(1)" fill="none" stroke="#444746" stroke-width="2" stroke-linecap="round" stroke-linejoin="round"><path d="M16 21v-2a4 4 0 0 0-4-4H6a4 4 0 0 0-4 4v2" /> <path d="M16 3.128a4 4 0 0 1 0 7.744" /> <path d="M22 21v-2a4 4 0 0 0-3-3.87" /> <circle cx="9" cy="7" r="4" /></g><text x="72" y="248" font-family="Inter" font-size="16" font-weight="400" fill="#1F1F1F">Family group</text><text x="20" y="302" font-family="Inter" font-size="14" font-weight="600" fill="#0B57D0">Account &amp; security</text><g transform="translate(20 330) scale(1)" fill="none" stroke="#444746" stroke-width="2" stroke-linecap="round" stroke-linejoin="round"><rect width="18" height="11" x="3" y="11" rx="2" ry="2" /> <path d="M7 11V7a5 5 0 0 1 10 0v4" /></g><text x="72" y="348" font-family="Inter" font-size="16" font-weight="400" fill="#1F1F1F">Security</text></g><rect x="7" y="139" width="346" height="78" rx="12" fill="none" stroke="#E8542F" stroke-width="2.5"/><rect x="304.3" y="128" width="38.7" height="21" rx="10.5" fill="#E8542F"/><text x="323.7" y="142.5" font-family="Inter" font-size="11.5" font-weight="700" fill="#FFFFFF" text-anchor="middle">Tap</text></g></g><rect x="30" y="814" width="1740" height="386" rx="24" fill="#FFFFFF"/><circle cx="84" cy="844" r="22" fill="#FFC845"/><text x="84" y="852" font-family="Inter" font-size="22" font-weight="800" fill="#003A69" text-anchor="middle">3</text><text x="120" y="854" font-family="Inter" font-size="26" font-weight="800" fill="#003A69">Allow only the apps on the</text><text x="120" y="886" font-family="Inter" font-size="26" font-weight="800" fill="#003A69">list</text><text x="120" y="918" font-family="Inter" font-size="15" font-weight="400" fill="#4A5B70">10 minutes · on your phone, in Family Link</text><text x="60" y="952" font-family="Inter" font-size="16" font-weight="400" fill="#12263F">1. Open Family Link → your child → Controls → Screen</text><text x="84" y="974" font-family="Inter" font-size="16" font-weight="400" fill="#12263F">time.</text><text x="60" y="1004" font-family="Inter" font-size="16" font-weight="400" fill="#12263F">2. Turn on Downtime (called School time in some</text><text x="84" y="1026" font-family="Inter" font-size="16" font-weight="400" fill="#12263F">versions).</text><text x="60" y="1056" font-family="Inter" font-size="16" font-weight="400" fill="#12263F">3. Tap Weekly schedule → choose a day → Start 12:00 AM,</text><text x="84" y="1078" font-family="Inter" font-size="16" font-weight="400" fill="#12263F">End 11:59 PM → Apply to all days of the week.</text><text x="60" y="1108" font-family="Inter" font-size="16" font-weight="400" fill="#12263F">4. Tap Allowed apps → turn on Unlimited apps → Select</text><text x="84" y="1130" font-family="Inter" font-size="16" font-weight="400" fill="#12263F">apps.</text><text x="60" y="1160" font-family="Inter" font-size="16" font-weight="400" fill="#12263F">5. Set each app on your list to Unlimited time.</text><g transform="translate(580 834) scale(0.62)"><rect x="0" y="0" width="376" height="476" rx="30" fill="#1D1D1F"/><defs><clipPath id="fl-controls-clip"><rect x="0" y="0" width="360" height="460" rx="23"/></clipPath></defs><g transform="translate(8 8)"><g clip-path="url(#fl-controls-clip)"><rect x="0" y="0" width="360" height="460" fill="#FFFFFF"/><text x="20" y="27" font-family="Inter" font-size="14" font-weight="500" fill="#000000">9:41</text><circle cx="180" cy="21" r="6" fill="#1D1D1F"/><path d="M284 26 l7 -9 7 9 z" fill="#000000"/><path d="M302 27 l10 -11 v11 z" fill="#000000"/><rect x="320" y="15" width="8" height="13" rx="1.5" fill="#000000"/><g transform="translate(18 57) scale(1)" fill="none" stroke="#1F1F1F" stroke-width="2" stroke-linecap="round" stroke-linejoin="round"><path d="m12 19-7-7 7-7" /> <path d="M19 12H5" /></g><text x="62" y="76" font-family="Inter" font-size="21" font-weight="400" fill="#1F1F1F">Alex</text><text x="60" y="130" font-family="Inter" font-size="14" font-weight="600" fill="#444746" text-anchor="middle">Highlights</text><text x="180" y="130" font-family="Inter" font-size="14" font-weight="600" fill="#0B57D0" text-anchor="middle">Controls</text><rect x="152" y="147" width="56" height="3" rx="1.5" fill="#0B57D0"/><text x="300" y="130" font-family="Inter" font-size="14" font-weight="600" fill="#444746" text-anchor="middle">Location</text><rect x="0" y="150" width="360" height="1" fill="#E1E3E1"/><g transform="translate(20 184) scale(1)" fill="none" stroke="#444746" stroke-width="2" stroke-linecap="round" stroke-linejoin="round"><path d="M5 22h14" /> <path d="M5 2h14" /> <path d="M17 22v-4.172a2 2 0 0 0-.586-1.414L12 12l-4.414 4.414A2 2 0 0 0 7 17.828V22" /> <path d="M7 2v4.172a2 2 0 0 0 .586 1.414L12 12l4.414-4.414A2 2 0 0 0 17 6.172V2" /></g><text x="72" y="193" font-family="Inter" font-size="16" font-weight="400" fill="#1F1F1F">Screen time</text><text x="72" y="213" font-family="Inter" font-size="13.5" font-weight="400" fill="#444746">Daily limit, downtime, app limits</text><g transform="translate(20 256) scale(1)" fill="none" stroke="#444746" stroke-width="2" stroke-linecap="round" stroke-linejoin="round"><path d="M20 13c0 5-3.5 7.5-7.66 8.95a1 1 0 0 1-.67-.01C7.5 20.5 4 18 4 13V6a1 1 0 0 1 1-1c2 0 4.5-1.2 6.24-2.72a1.17 1.17 0 0 1 1.52 0C14.51 3.81 17 5 19 5a1 1 0 0 1 1 1z" /></g><text x="72" y="265" font-family="Inter" font-size="16" font-weight="400" fill="#1F1F1F">Content restrictions</text><text x="72" y="285" font-family="Inter" font-size="13.5" font-weight="400" fill="#444746">Google Play, Chrome, YouTube</text><g transform="translate(20 328) scale(1)" fill="none" stroke="#444746" stroke-width="2" stroke-linecap="round" stroke-linejoin="round"><path d="M16 21v-2a4 4 0 0 0-4-4H6a4 4 0 0 0-4 4v2" /> <path d="M16 3.128a4 4 0 0 1 0 7.744" /> <path d="M22 21v-2a4 4 0 0 0-3-3.87" /> <circle cx="9" cy="7" r="4" /></g><text x="72" y="337" font-family="Inter" font-size="16" font-weight="400" fill="#1F1F1F">Contacts</text><text x="72" y="357" font-family="Inter" font-size="13.5" font-weight="400" fill="#444746">Who your child can talk to</text><g transform="translate(20 400) scale(1)" fill="none" stroke="#444746" stroke-width="2" stroke-linecap="round" stroke-linejoin="round"><path d="M9.671 4.136a2.34 2.34 0 0 1 4.659 0 2.34 2.34 0 0 0 3.319 1.915 2.34 2.34 0 0 1 2.33 4.033 2.34 2.34 0 0 0 0 3.831 2.34 2.34 0 0 1-2.33 4.033 2.34 2.34 0 0 0-3.319 1.915 2.34 2.34 0 0 1-4.659 0 2.34 2.34 0 0 0-3.32-1.915 2.34 2.34 0 0 1-2.33-4.033 2.34 2.34 0 0 0 0-3.831A2.34 2.34 0 0 1 6.35 6.051a2.34 2.34 0 0 0 3.319-1.915" /> <circle cx="12" cy="12" r="3" /></g><text x="72" y="409" font-family="Inter" font-size="16" font-weight="400" fill="#1F1F1F">Devices</text><text x="72" y="429" font-family="Inter" font-size="13.5" font-weight="400" fill="#444746">Alex's Galaxy A15</text></g><rect x="7" y="157" width="346" height="78" rx="12" fill="none" stroke="#E8542F" stroke-width="2.5"/><rect x="304.3" y="146" width="38.7" height="21" rx="10.5" fill="#E8542F"/><text x="323.7" y="160.5" font-family="Inter" font-size="11.5" font-weight="700" fill="#FFFFFF" text-anchor="middle">Tap</text></g></g><g transform="translate(837.12 834) scale(0.62)"><rect x="0" y="0" width="376" height="404" rx="30" fill="#1D1D1F"/><defs><clipPath id="fl-downtime-clip"><rect x="0" y="0" width="360" height="388" rx="23"/></clipPath></defs><g transform="translate(8 8)"><g clip-path="url(#fl-downtime-clip)"><rect x="0" y="0" width="360" height="388" fill="#FFFFFF"/><text x="20" y="27" font-family="Inter" font-size="14" font-weight="500" fill="#000000">9:41</text><circle cx="180" cy="21" r="6" fill="#1D1D1F"/><path d="M284 26 l7 -9 7 9 z" fill="#000000"/><path d="M302 27 l10 -11 v11 z" fill="#000000"/><rect x="320" y="15" width="8" height="13" rx="1.5" fill="#000000"/><g transform="translate(18 57) scale(1)" fill="none" stroke="#1F1F1F" stroke-width="2" stroke-linecap="round" stroke-linejoin="round"><path d="m12 19-7-7 7-7" /> <path d="M19 12H5" /></g><text x="62" y="76" font-family="Inter" font-size="21" font-weight="400" fill="#1F1F1F">Screen time</text><text x="60" y="130" font-family="Inter" font-size="14" font-weight="600" fill="#444746" text-anchor="middle">Daily limit</text><text x="180" y="130" font-family="Inter" font-size="14" font-weight="600" fill="#0B57D0" text-anchor="middle">Downtime</text><rect x="152" y="147" width="56" height="3" rx="1.5" fill="#0B57D0"/><text x="300" y="130" font-family="Inter" font-size="14" font-weight="600" fill="#444746" text-anchor="middle">App limits</text><rect x="0" y="150" width="360" height="1" fill="#E1E3E1"/><rect x="288" y="180" width="52" height="32" rx="16" fill="#0B57D0"/><circle cx="324" cy="196" r="12" fill="#FFF"/><path d="M319 196 l3.5 3.5 7 -7" fill="none" stroke="#0B57D0" stroke-width="2.2" stroke-linecap="round" stroke-linejoin="round"/><text x="20" y="193" font-family="Inter" font-size="16" font-weight="400" fill="#1F1F1F">Downtime</text><text x="20" y="213" font-family="Inter" font-size="13.5" font-weight="400" fill="#444746">Also called School time on some versio…</text><text x="20" y="265" font-family="Inter" font-size="16" font-weight="400" fill="#1F1F1F">Weekly schedule</text><text x="20" y="285" font-family="Inter" font-size="13.5" font-weight="400" fill="#444746">Every day, 12:00 AM to 11:59 PM</text><text x="20" y="337" font-family="Inter" font-size="16" font-weight="400" fill="#1F1F1F">Allowed apps</text><text x="20" y="357" font-family="Inter" font-size="13.5" font-weight="400" fill="#444746">Apps that work during downtime</text></g><rect x="7" y="157" width="346" height="78" rx="12" fill="none" stroke="#E8542F" stroke-width="2.5"/><rect x="281.6" y="146" width="61.4" height="21" rx="10.5" fill="#E8542F"/><text x="312.3" y="160.5" font-family="Inter" font-size="11.5" font-weight="700" fill="#FFFFFF" text-anchor="middle">Turn on</text></g></g><g transform="translate(1094.24 834) scale(0.62)"><rect x="0" y="0" width="376" height="374" rx="30" fill="#1D1D1F"/><defs><clipPath id="fl-schedule-clip"><rect x="0" y="0" width="360" height="358" rx="23"/></clipPath></defs><g transform="translate(8 8)"><g clip-path="url(#fl-schedule-clip)"><rect x="0" y="0" width="360" height="358" fill="#FFFFFF"/><text x="20" y="27" font-family="Inter" font-size="14" font-weight="500" fill="#000000">9:41</text><circle cx="180" cy="21" r="6" fill="#1D1D1F"/><path d="M284 26 l7 -9 7 9 z" fill="#000000"/><path d="M302 27 l10 -11 v11 z" fill="#000000"/><rect x="320" y="15" width="8" height="13" rx="1.5" fill="#000000"/><g transform="translate(18 57) scale(1)" fill="none" stroke="#1F1F1F" stroke-width="2" stroke-linecap="round" stroke-linejoin="round"><path d="m12 19-7-7 7-7" /> <path d="M19 12H5" /></g><text x="62" y="76" font-family="Inter" font-size="21" font-weight="400" fill="#1F1F1F">Weekly schedule</text><circle cx="42.9" cy="130" r="18" fill="#0B57D0"/><text x="42.9" y="135" font-family="Inter" font-size="14" font-weight="600" fill="#FFF" text-anchor="middle">M</text><circle cx="88.6" cy="130" r="18" fill="#F0F4F9"/><text x="88.6" y="135" font-family="Inter" font-size="14" font-weight="600" fill="#444746" text-anchor="middle">T</text><circle cx="134.3" cy="130" r="18" fill="#F0F4F9"/><text x="134.3" y="135" font-family="Inter" font-size="14" font-weight="600" fill="#444746" text-anchor="middle">W</text><circle cx="180" cy="130" r="18" fill="#F0F4F9"/><text x="180" y="135" font-family="Inter" font-size="14" font-weight="600" fill="#444746" text-anchor="middle">T</text><circle cx="225.7" cy="130" r="18" fill="#F0F4F9"/><text x="225.7" y="135" font-family="Inter" font-size="14" font-weight="600" fill="#444746" text-anchor="middle">F</text><circle cx="271.4" cy="130" r="18" fill="#F0F4F9"/><text x="271.4" y="135" font-family="Inter" font-size="14" font-weight="600" fill="#444746" text-anchor="middle">S</text><circle cx="317.1" cy="130" r="18" fill="#F0F4F9"/><text x="317.1" y="135" font-family="Inter" font-size="14" font-weight="600" fill="#444746" text-anchor="middle">S</text><text x="340" y="199" font-family="Inter" font-size="14" font-weight="400" fill="#444746" text-anchor="end">12:00 AM</text><text x="20" y="200" font-family="Inter" font-size="16" font-weight="400" fill="#1F1F1F">Start</text><text x="340" y="255" font-family="Inter" font-size="14" font-weight="400" fill="#444746" text-anchor="end">11:59 PM</text><text x="20" y="256" font-family="Inter" font-size="16" font-weight="400" fill="#1F1F1F">End</text><rect x="20" y="292" width="320" height="44" rx="22" fill="#0B57D0"/><text x="180" y="319" font-family="Inter" font-size="14.5" font-weight="600" fill="#FFF" text-anchor="middle">Apply to all days of the week</text></g><rect x="7" y="163" width="346" height="118" rx="12" fill="none" stroke="#E8542F" stroke-width="2.5"/><rect x="233.2" y="152" width="109.8" height="21" rx="10.5" fill="#E8542F"/><text x="288.1" y="166.5" font-family="Inter" font-size="11.5" font-weight="700" fill="#FFFFFF" text-anchor="middle">Set these times</text><rect x="17" y="289" width="326" height="50" rx="12" fill="none" stroke="#E8542F" stroke-width="2.5"/><rect x="265.1" y="278" width="67.9" height="21" rx="10.5" fill="#E8542F"/><text x="299" y="292.5" font-family="Inter" font-size="11.5" font-weight="700" fill="#FFFFFF" text-anchor="middle">Then tap</text></g></g><g transform="translate(1351.3600000000001 834) scale(0.62)"><rect x="0" y="0" width="376" height="472" rx="30" fill="#1D1D1F"/><defs><clipPath id="fl-allowed-apps-clip"><rect x="0" y="0" width="360" height="456" rx="23"/></clipPath></defs><g transform="translate(8 8)"><g clip-path="url(#fl-allowed-apps-clip)"><rect x="0" y="0" width="360" height="456" fill="#FFFFFF"/><text x="20" y="27" font-family="Inter" font-size="14" font-weight="500" fill="#000000">9:41</text><circle cx="180" cy="21" r="6" fill="#1D1D1F"/><path d="M284 26 l7 -9 7 9 z" fill="#000000"/><path d="M302 27 l10 -11 v11 z" fill="#000000"/><rect x="320" y="15" width="8" height="13" rx="1.5" fill="#000000"/><g transform="translate(18 57) scale(1)" fill="none" stroke="#1F1F1F" stroke-width="2" stroke-linecap="round" stroke-linejoin="round"><path d="m12 19-7-7 7-7" /> <path d="M19 12H5" /></g><text x="62" y="76" font-family="Inter" font-size="21" font-weight="400" fill="#1F1F1F">Allowed apps</text><rect x="288" y="124" width="52" height="32" rx="16" fill="#0B57D0"/><circle cx="324" cy="140" r="12" fill="#FFF"/><path d="M319 140 l3.5 3.5 7 -7" fill="none" stroke="#0B57D0" stroke-width="2.2" stroke-linecap="round" stroke-linejoin="round"/><text x="20" y="137" font-family="Inter" font-size="16" font-weight="400" fill="#1F1F1F">Unlimited apps</text><text x="20" y="157" font-family="Inter" font-size="13.5" font-weight="400" fill="#444746">These work during downtime</text><text x="20" y="208" font-family="Inter" font-size="14" font-weight="600" fill="#0B57D0">Select apps</text><circle cx="38" cy="248" r="18" fill="#34C759"/><g transform="translate(28 238) scale(0.8332999999999999)" fill="none" stroke="#FFF" stroke-width="2.2" stroke-linecap="round" stroke-linejoin="round"><path d="M13.832 16.568a1 1 0 0 0 1.213-.303l.355-.465A2 2 0 0 1 17 15h3a2 2 0 0 1 2 2v3a2 2 0 0 1-2 2A18 18 0 0 1 2 4a2 2 0 0 1 2-2h3a2 2 0 0 1 2 2v3a2 2 0 0 1-.8 1.6l-.468.351a1 1 0 0 0-.292 1.233 14 14 0 0 0 6.392 6.384" /></g><text x="340" y="253" font-family="Inter" font-size="14" font-weight="400" fill="#444746" text-anchor="end">Unlimited time</text><text x="72" y="254" font-family="Inter" font-size="16" font-weight="400" fill="#1F1F1F">Phone</text><circle cx="38" cy="304" r="18" fill="#1A73E8"/><g transform="translate(28 294) scale(0.8332999999999999)" fill="none" stroke="#FFF" stroke-width="2.2" stroke-linecap="round" stroke-linejoin="round"><path d="M2.992 16.342a2 2 0 0 1 .094 1.167l-1.065 3.29a1 1 0 0 0 1.236 1.168l3.413-.998a2 2 0 0 1 1.099.092 10 10 0 1 0-4.777-4.719" /></g><text x="340" y="309" font-family="Inter" font-size="14" font-weight="400" fill="#444746" text-anchor="end">Unlimited time</text><text x="72" y="310" font-family="Inter" font-size="16" font-weight="400" fill="#1F1F1F">Messages</text><circle cx="38" cy="360" r="18" fill="#25D366"/><g transform="translate(28 350) scale(0.8332999999999999)" fill="none" stroke="#FFF" stroke-width="2.2" stroke-linecap="round" stroke-linejoin="round"><path d="M22 17a2 2 0 0 1-2 2H6.828a2 2 0 0 0-1.414.586l-2.202 2.202A.71.71 0 0 1 2 21.286V5a2 2 0 0 1 2-2h16a2 2 0 0 1 2 2z" /></g><text x="340" y="365" font-family="Inter" font-size="14" font-weight="400" fill="#444746" text-anchor="end">Unlimited time</text><text x="72" y="366" font-family="Inter" font-size="16" font-weight="400" fill="#1F1F1F">WhatsApp</text><circle cx="38" cy="416" r="18" fill="#FF0000"/><g transform="translate(28 406) scale(0.8332999999999999)" fill="none" stroke="#FFF" stroke-width="2.2" stroke-linecap="round" stroke-linejoin="round"><path d="M5 5a2 2 0 0 1 3.008-1.728l11.997 6.998a2 2 0 0 1 .003 3.458l-12 7A2 2 0 0 1 5 19z" /></g><text x="340" y="421" font-family="Inter" font-size="14" font-weight="400" fill="#747775" text-anchor="end">Not allowed</text><text x="72" y="422" font-family="Inter" font-size="16" font-weight="400" fill="#747775">YouTube</text></g><rect x="7" y="101" width="346" height="78" rx="12" fill="none" stroke="#E8542F" stroke-width="2.5"/><rect x="281.6" y="90" width="61.4" height="21" rx="10.5" fill="#E8542F"/><text x="312.3" y="104.5" font-family="Inter" font-size="11.5" font-weight="700" fill="#FFFFFF" text-anchor="middle">Turn on</text><rect x="7" y="217" width="346" height="62" rx="12" fill="none" stroke="#E8542F" stroke-width="2.5"/><rect x="213.4" y="206" width="129.6" height="21" rx="10.5" fill="#E8542F"/><text x="278.2" y="220.5" font-family="Inter" font-size="11.5" font-weight="700" fill="#FFFFFF" text-anchor="middle">Each app on the list</text></g></g><rect x="30" y="1230" width="1740" height="394" rx="24" fill="#FFFFFF"/><circle cx="84" cy="1260" r="22" fill="#FFC845"/><text x="84" y="1268" font-family="Inter" font-size="22" font-weight="800" fill="#003A69" text-anchor="middle">4</text><text x="120" y="1270" font-family="Inter" font-size="26" font-weight="800" fill="#003A69">Allow only the websites they</text><text x="120" y="1302" font-family="Inter" font-size="26" font-weight="800" fill="#003A69">need</text><text x="120" y="1334" font-family="Inter" font-size="15" font-weight="400" fill="#4A5B70">5 minutes · on your phone, in Family Link</text><text x="60" y="1368" font-family="Inter" font-size="16" font-weight="400" fill="#12263F">1. In Family Link, go to Controls → Content</text><text x="84" y="1390" font-family="Inter" font-size="16" font-weight="400" fill="#12263F">restrictions → Google Chrome.</text><text x="60" y="1420" font-family="Inter" font-size="16" font-weight="400" fill="#12263F">2. Choose Only allow approved sites, then add the sites</text><text x="84" y="1442" font-family="Inter" font-size="16" font-weight="400" fill="#12263F">on the list under Approved sites.</text><text x="60" y="1472" font-family="Inter" font-size="16" font-weight="400" fill="#12263F">3. Block other browsers: Screen time → App limits → tap</text><text x="84" y="1494" font-family="Inter" font-size="16" font-weight="400" fill="#12263F">each browser → turn Allowed off.</text><rect x="60" y="1516" width="470" height="80" rx="12" fill="#FFF1C9"/><text x="76" y="1544" font-family="Inter" font-size="14" font-weight="400" fill="#12263F">If a homework site won't load, don't switch the filter off.</text><text x="76" y="1564" font-family="Inter" font-size="14" font-weight="400" fill="#12263F">Email smartphonestudy@public.io and we'll add it to the</text><text x="76" y="1584" font-family="Inter" font-size="14" font-weight="400" fill="#12263F">shared list.</text><g transform="translate(580 1250) scale(0.62)"><rect x="0" y="0" width="376" height="420" rx="30" fill="#1D1D1F"/><defs><clipPath id="fl-content-clip"><rect x="0" y="0" width="360" height="404" rx="23"/></clipPath></defs><g transform="translate(8 8)"><g clip-path="url(#fl-content-clip)"><rect x="0" y="0" width="360" height="404" fill="#FFFFFF"/><text x="20" y="27" font-family="Inter" font-size="14" font-weight="500" fill="#000000">9:41</text><circle cx="180" cy="21" r="6" fill="#1D1D1F"/><path d="M284 26 l7 -9 7 9 z" fill="#000000"/><path d="M302 27 l10 -11 v11 z" fill="#000000"/><rect x="320" y="15" width="8" height="13" rx="1.5" fill="#000000"/><g transform="translate(18 57) scale(1)" fill="none" stroke="#1F1F1F" stroke-width="2" stroke-linecap="round" stroke-linejoin="round"><path d="m12 19-7-7 7-7" /> <path d="M19 12H5" /></g><text x="62" y="76" font-family="Inter" font-size="21" font-weight="400" fill="#1F1F1F">Content restrictions</text><g transform="translate(20 128) scale(1)" fill="none" stroke="#444746" stroke-width="2" stroke-linecap="round" stroke-linejoin="round"><path d="M15 21v-5a1 1 0 0 0-1-1h-4a1 1 0 0 0-1 1v5" /> <path d="M17.774 10.31a1.12 1.12 0 0 0-1.549 0 2.5 2.5 0 0 1-3.451 0 1.12 1.12 0 0 0-1.548 0 2.5 2.5 0 0 1-3.452 0 1.12 1.12 0 0 0-1.549 0 2.5 2.5 0 0 1-3.77-3.248l2.889-4.184A2 2 0 0 1 7 2h10a2 2 0 0 1 1.653.873l2.895 4.192a2.5 2.5 0 0 1-3.774 3.244" /> <path d="M4 10.95V19a2 2 0 0 0 2 2h12a2 2 0 0 0 2-2v-8.05" /></g><text x="72" y="137" font-family="Inter" font-size="16" font-weight="400" fill="#1F1F1F">Google Play</text><text x="72" y="157" font-family="Inter" font-size="13.5" font-weight="400" fill="#444746">Approval needed for downloads</text><g transform="translate(20 200) scale(1)" fill="none" stroke="#444746" stroke-width="2" stroke-linecap="round" stroke-linejoin="round"><circle cx="12" cy="12" r="10" /> <path d="M12 2a14.5 14.5 0 0 0 0 20 14.5 14.5 0 0 0 0-20" /> <path d="M2 12h20" /></g><text x="72" y="209" font-family="Inter" font-size="16" font-weight="400" fill="#1F1F1F">Google Chrome</text><text x="72" y="229" font-family="Inter" font-size="13.5" font-weight="400" fill="#444746">Try to block explicit sites</text><g transform="translate(20 272) scale(1)" fill="none" stroke="#444746" stroke-width="2" stroke-linecap="round" stroke-linejoin="round"><path d="M5 5a2 2 0 0 1 3.008-1.728l11.997 6.998a2 2 0 0 1 .003 3.458l-12 7A2 2 0 0 1 5 19z" /></g><text x="72" y="281" font-family="Inter" font-size="16" font-weight="400" fill="#1F1F1F">YouTube</text><text x="72" y="301" font-family="Inter" font-size="13.5" font-weight="400" fill="#444746">Blocked</text><g transform="translate(20 344) scale(1)" fill="none" stroke="#444746" stroke-width="2" stroke-linecap="round" stroke-linejoin="round"><path d="m21 21-4.34-4.34" /> <circle cx="11" cy="11" r="8" /></g><text x="72" y="353" font-family="Inter" font-size="16" font-weight="400" fill="#1F1F1F">Google Search</text><text x="72" y="373" font-family="Inter" font-size="13.5" font-weight="400" fill="#444746">SafeSearch on</text></g><rect x="7" y="173" width="346" height="78" rx="12" fill="none" stroke="#E8542F" stroke-width="2.5"/><rect x="304.3" y="162" width="38.7" height="21" rx="10.5" fill="#E8542F"/><text x="323.7" y="176.5" font-family="Inter" font-size="11.5" font-weight="700" fill="#FFFFFF" text-anchor="middle">Tap</text></g></g><g transform="translate(837.12 1250) scale(0.62)"><rect x="0" y="0" width="376" height="488" rx="30" fill="#1D1D1F"/><defs><clipPath id="fl-chrome-clip"><rect x="0" y="0" width="360" height="472" rx="23"/></clipPath></defs><g transform="translate(8 8)"><g clip-path="url(#fl-chrome-clip)"><rect x="0" y="0" width="360" height="472" fill="#FFFFFF"/><text x="20" y="27" font-family="Inter" font-size="14" font-weight="500" fill="#000000">9:41</text><circle cx="180" cy="21" r="6" fill="#1D1D1F"/><path d="M284 26 l7 -9 7 9 z" fill="#000000"/><path d="M302 27 l10 -11 v11 z" fill="#000000"/><rect x="320" y="15" width="8" height="13" rx="1.5" fill="#000000"/><g transform="translate(18 57) scale(1)" fill="none" stroke="#1F1F1F" stroke-width="2" stroke-linecap="round" stroke-linejoin="round"><path d="m12 19-7-7 7-7" /> <path d="M19 12H5" /></g><text x="62" y="76" font-family="Inter" font-size="21" font-weight="400" fill="#1F1F1F">Google Chrome</text><circle cx="30" cy="132" r="9" fill="none" stroke="#444746" stroke-width="2"/><text x="64" y="138" font-family="Inter" font-size="16" font-weight="400" fill="#1F1F1F">Allow all sites</text><circle cx="30" cy="188" r="9" fill="none" stroke="#444746" stroke-width="2"/><text x="64" y="194" font-family="Inter" font-size="16" font-weight="400" fill="#1F1F1F">Try to block explicit sites</text><circle cx="30" cy="244" r="9" fill="none" stroke="#0B57D0" stroke-width="2"/><circle cx="30" cy="244" r="5" fill="#0B57D0"/><text x="64" y="250" font-family="Inter" font-size="16" font-weight="400" fill="#1F1F1F">Only allow approved sites</text><text x="20" y="304" font-family="Inter" font-size="14" font-weight="600" fill="#0B57D0">Manage sites</text><g transform="translate(20 340) scale(1)" fill="none" stroke="#444746" stroke-width="2" stroke-linecap="round" stroke-linejoin="round"><path d="M20 6 9 17l-5-5" /></g><text x="72" y="349" font-family="Inter" font-size="16" font-weight="400" fill="#1F1F1F">Approved sites</text><text x="72" y="369" font-family="Inter" font-size="13.5" font-weight="400" fill="#444746">3 sites</text><g transform="translate(20 412) scale(1)" fill="none" stroke="#444746" stroke-width="2" stroke-linecap="round" stroke-linejoin="round"><circle cx="12" cy="12" r="10" /> <path d="M4.929 4.929 19.07 19.071" /></g><text x="72" y="421" font-family="Inter" font-size="16" font-weight="400" fill="#1F1F1F">Blocked sites</text><text x="72" y="441" font-family="Inter" font-size="13.5" font-weight="400" fill="#444746">0 sites</text></g><rect x="7" y="213" width="346" height="62" rx="12" fill="none" stroke="#E8542F" stroke-width="2.5"/><rect x="258.9" y="202" width="84.1" height="21" rx="10.5" fill="#E8542F"/><text x="300.9" y="216.5" font-family="Inter" font-size="11.5" font-weight="700" fill="#FFFFFF" text-anchor="middle">Choose this</text><rect x="7" y="313" width="346" height="78" rx="12" fill="none" stroke="#E8542F" stroke-width="2.5"/><rect x="187.4" y="302" width="155.6" height="21" rx="10.5" fill="#E8542F"/><text x="265.2" y="316.5" font-family="Inter" font-size="11.5" font-weight="700" fill="#FFFFFF" text-anchor="middle">Add the sites on the list</text></g></g><g transform="translate(1094.24 1250) scale(0.62)"><rect x="0" y="0" width="376" height="316" rx="30" fill="#1D1D1F"/><defs><clipPath id="fl-block-browser-clip"><rect x="0" y="0" width="360" height="300" rx="23"/></clipPath></defs><g transform="translate(8 8)"><g clip-path="url(#fl-block-browser-clip)"><rect x="0" y="0" width="360" height="300" fill="#FFFFFF"/><text x="20" y="27" font-family="Inter" font-size="14" font-weight="500" fill="#000000">9:41</text><circle cx="180" cy="21" r="6" fill="#1D1D1F"/><path d="M284 26 l7 -9 7 9 z" fill="#000000"/><path d="M302 27 l10 -11 v11 z" fill="#000000"/><rect x="320" y="15" width="8" height="13" rx="1.5" fill="#000000"/><g transform="translate(18 57) scale(1)" fill="none" stroke="#1F1F1F" stroke-width="2" stroke-linecap="round" stroke-linejoin="round"><path d="m12 19-7-7 7-7" /> <path d="M19 12H5" /></g><text x="62" y="76" font-family="Inter" font-size="21" font-weight="400" fill="#1F1F1F">App limits</text><circle cx="38" cy="132" r="18" fill="#FF7139"/><g transform="translate(28 122) scale(0.8332999999999999)" fill="none" stroke="#FFF" stroke-width="2.2" stroke-linecap="round" stroke-linejoin="round"><circle cx="12" cy="12" r="10" /> <path d="M12 2a14.5 14.5 0 0 0 0 20 14.5 14.5 0 0 0 0-20" /> <path d="M2 12h20" /></g><rect x="289" y="117" width="50" height="30" rx="15" fill="#E1E3E1" stroke="#747775" stroke-width="2"/><circle cx="305" cy="132" r="8" fill="#747775"/><text x="72" y="138" font-family="Inter" font-size="16" font-weight="400" fill="#1F1F1F">Firefox</text><circle cx="38" cy="188" r="18" fill="#0060DF"/><g transform="translate(28 178) scale(0.8332999999999999)" fill="none" stroke="#FFF" stroke-width="2.2" stroke-linecap="round" stroke-linejoin="round"><circle cx="12" cy="12" r="10" /> <path d="M12 2a14.5 14.5 0 0 0 0 20 14.5 14.5 0 0 0 0-20" /> <path d="M2 12h20" /></g><rect x="289" y="173" width="50" height="30" rx="15" fill="#E1E3E1" stroke="#747775" stroke-width="2"/><circle cx="305" cy="188" r="8" fill="#747775"/><text x="72" y="194" font-family="Inter" font-size="16" font-weight="400" fill="#1F1F1F">Samsung Internet</text><circle cx="38" cy="252" r="18" fill="#4285F4"/><g transform="translate(28 242) scale(0.8332999999999999)" fill="none" stroke="#FFF" stroke-width="2.2" stroke-linecap="round" stroke-linejoin="round"><circle cx="12" cy="12" r="10" /> <path d="M12 2a14.5 14.5 0 0 0 0 20 14.5 14.5 0 0 0 0-20" /> <path d="M2 12h20" /></g><rect x="288" y="236" width="52" height="32" rx="16" fill="#0B57D0"/><circle cx="324" cy="252" r="12" fill="#FFF"/><path d="M319 252 l3.5 3.5 7 -7" fill="none" stroke="#0B57D0" stroke-width="2.2" stroke-linecap="round" stroke-linejoin="round"/><text x="72" y="249" font-family="Inter" font-size="16" font-weight="400" fill="#1F1F1F">Chrome</text><text x="72" y="269" font-family="Inter" font-size="13.5" font-weight="400" fill="#444746">Approved sites only</text></g><rect x="7" y="101" width="346" height="62" rx="12" fill="none" stroke="#E8542F" stroke-width="2.5"/><rect x="228.8" y="90" width="114.2" height="21" rx="10.5" fill="#E8542F"/><text x="285.9" y="104.5" font-family="Inter" font-size="11.5" font-weight="700" fill="#FFFFFF" text-anchor="middle">Turn Allowed off</text></g></g><rect x="30" y="1654" width="1740" height="269.48" rx="24" fill="#FFFFFF"/><circle cx="84" cy="1684" r="22" fill="#FFC845"/><text x="84" y="1692" font-family="Inter" font-size="22" font-weight="800" fill="#003A69" text-anchor="middle">5</text><text x="120" y="1694" font-family="Inter" font-size="26" font-weight="800" fill="#003A69">Lock the settings</text><text x="120" y="1726" font-family="Inter" font-size="15" font-weight="400" fill="#4A5B70">3 minutes · on your phone, in Family Link</text><text x="60" y="1760" font-family="Inter" font-size="16" font-weight="400" fill="#12263F">1. In Family Link, go to Controls → Content</text><text x="84" y="1782" font-family="Inter" font-size="16" font-weight="400" fill="#12263F">restrictions → Google Play.</text><text x="60" y="1812" font-family="Inter" font-size="16" font-weight="400" fill="#12263F">2. Under download approvals, choose All content, so</text><text x="84" y="1834" font-family="Inter" font-size="16" font-weight="400" fill="#12263F">nothing new can be installed without your approval.</text><g transform="translate(580 1674) scale(0.62)"><rect x="0" y="0" width="376" height="354" rx="30" fill="#1D1D1F"/><defs><clipPath id="fl-play-clip"><rect x="0" y="0" width="360" height="338" rx="23"/></clipPath></defs><g transform="translate(8 8)"><g clip-path="url(#fl-play-clip)"><rect x="0" y="0" width="360" height="338" fill="#FFFFFF"/><text x="20" y="27" font-family="Inter" font-size="14" font-weight="500" fill="#000000">9:41</text><circle cx="180" cy="21" r="6" fill="#1D1D1F"/><path d="M284 26 l7 -9 7 9 z" fill="#000000"/><path d="M302 27 l10 -11 v11 z" fill="#000000"/><rect x="320" y="15" width="8" height="13" rx="1.5" fill="#000000"/><g transform="translate(18 57) scale(1)" fill="none" stroke="#1F1F1F" stroke-width="2" stroke-linecap="round" stroke-linejoin="round"><path d="m12 19-7-7 7-7" /> <path d="M19 12H5" /></g><text x="62" y="76" font-family="Inter" font-size="21" font-weight="400" fill="#1F1F1F">Google Play</text><text x="20" y="130" font-family="Inter" font-size="14" font-weight="600" fill="#0B57D0">Purchases &amp; download approvals</text><circle cx="30" cy="178" r="9" fill="none" stroke="#0B57D0" stroke-width="2"/><circle cx="30" cy="178" r="5" fill="#0B57D0"/><text x="64" y="175" font-family="Inter" font-size="16" font-weight="400" fill="#1F1F1F">All content</text><text x="64" y="195" font-family="Inter" font-size="13.5" font-weight="400" fill="#444746">Approval needed for free and paid downlo…</text><circle cx="30" cy="242" r="9" fill="none" stroke="#444746" stroke-width="2"/><text x="64" y="248" font-family="Inter" font-size="16" font-weight="400" fill="#1F1F1F">Only paid content</text><circle cx="30" cy="298" r="9" fill="none" stroke="#444746" stroke-width="2"/><text x="64" y="304" font-family="Inter" font-size="16" font-weight="400" fill="#1F1F1F">No approval required</text></g><rect x="7" y="139" width="346" height="78" rx="12" fill="none" stroke="#E8542F" stroke-width="2.5"/><rect x="258.9" y="128" width="84.1" height="21" rx="10.5" fill="#E8542F"/><text x="300.9" y="142.5" font-family="Inter" font-size="11.5" font-weight="700" fill="#FFFFFF" text-anchor="middle">Choose this</text></g></g><rect x="30" y="1953.48" width="1740" height="295.52" rx="24" fill="#FFFFFF"/><circle cx="84" cy="1983.48" r="22" fill="#FFC845"/><text x="84" y="1991.48" font-family="Inter" font-size="22" font-weight="800" fill="#003A69" text-anchor="middle">6</text><text x="120" y="1993.48" font-family="Inter" font-size="26" font-weight="800" fill="#003A69">Check it worked</text><text x="120" y="2025.48" font-family="Inter" font-size="15" font-weight="400" fill="#4A5B70">2 minutes · on your phone</text><text x="60" y="2059.48" font-family="Inter" font-size="16" font-weight="400" fill="#12263F">1. In Family Link, open your child's profile.</text><text x="60" y="2089.48" font-family="Inter" font-size="16" font-weight="400" fill="#12263F">2. If it shows their phone and recent activity, the</text><text x="84" y="2111.48" font-family="Inter" font-size="16" font-weight="400" fill="#12263F">link is live.</text><text x="60" y="2141.48" font-family="Inter" font-size="16" font-weight="400" fill="#12263F">3. If it shows nothing after a few hours, check the</text><text x="84" y="2163.48" font-family="Inter" font-size="16" font-weight="400" fill="#12263F">phone is switched on, connected, and signed into the</text><text x="84" y="2185.48" font-family="Inter" font-size="16" font-weight="400" fill="#12263F">supervised account.</text><g transform="translate(580 1973.48) scale(0.62)"><rect x="0" y="0" width="376" height="396" rx="30" fill="#1D1D1F"/><defs><clipPath id="fl-profile-clip"><rect x="0" y="0" width="360" height="380" rx="23"/></clipPath></defs><g transform="translate(8 8)"><g clip-path="url(#fl-profile-clip)"><rect x="0" y="0" width="360" height="380" fill="#FFFFFF"/><text x="20" y="27" font-family="Inter" font-size="14" font-weight="500" fill="#000000">9:41</text><circle cx="180" cy="21" r="6" fill="#1D1D1F"/><path d="M284 26 l7 -9 7 9 z" fill="#000000"/><path d="M302 27 l10 -11 v11 z" fill="#000000"/><rect x="320" y="15" width="8" height="13" rx="1.5" fill="#000000"/><g transform="translate(18 57) scale(1)" fill="none" stroke="#1F1F1F" stroke-width="2" stroke-linecap="round" stroke-linejoin="round"><path d="m12 19-7-7 7-7" /> <path d="M19 12H5" /></g><text x="62" y="76" font-family="Inter" font-size="21" font-weight="400" fill="#1F1F1F">Alex</text><text x="60" y="130" font-family="Inter" font-size="14" font-weight="600" fill="#0B57D0" text-anchor="middle">Highlights</text><rect x="32" y="147" width="56" height="3" rx="1.5" fill="#0B57D0"/><text x="180" y="130" font-family="Inter" font-size="14" font-weight="600" fill="#444746" text-anchor="middle">Controls</text><text x="300" y="130" font-family="Inter" font-size="14" font-weight="600" fill="#444746" text-anchor="middle">Location</text><rect x="0" y="150" width="360" height="1" fill="#E1E3E1"/><rect x="16" y="168" width="328" height="76" rx="16" fill="#F0F4F9"/><g transform="translate(34 192) scale(1.1667)" fill="none" stroke="#0B57D0" stroke-width="2" stroke-linecap="round" stroke-linejoin="round"><rect width="14" height="20" x="5" y="2" rx="2" ry="2" /> <path d="M12 18h.01" /></g><text x="80" y="202" font-family="Inter" font-size="16" font-weight="600" fill="#1F1F1F">Alex's Galaxy A15</text><text x="80" y="222" font-family="Inter" font-size="13.5" font-weight="400" fill="#444746">Last active 5 minutes ago</text><g transform="translate(20 272) scale(1)" fill="none" stroke="#444746" stroke-width="2" stroke-linecap="round" stroke-linejoin="round"><path d="M5 22h14" /> <path d="M5 2h14" /> <path d="M17 22v-4.172a2 2 0 0 0-.586-1.414L12 12l-4.414 4.414A2 2 0 0 0 7 17.828V22" /> <path d="M7 2v4.172a2 2 0 0 0 .586 1.414L12 12l4.414-4.414A2 2 0 0 0 17 6.172V2" /></g><text x="340" y="289" font-family="Inter" font-size="14" font-weight="400" fill="#444746" text-anchor="end">1 hr 4 min</text><text x="72" y="290" font-family="Inter" font-size="16" font-weight="400" fill="#1F1F1F">Screen time today</text><g transform="translate(20 328) scale(1)" fill="none" stroke="#444746" stroke-width="2" stroke-linecap="round" stroke-linejoin="round"><path d="M13.832 16.568a1 1 0 0 0 1.213-.303l.355-.465A2 2 0 0 1 17 15h3a2 2 0 0 1 2 2v3a2 2 0 0 1-2 2A18 18 0 0 1 2 4a2 2 0 0 1 2-2h3a2 2 0 0 1 2 2v3a2 2 0 0 1-.8 1.6l-.468.351a1 1 0 0 0-.292 1.233 14 14 0 0 0 6.392 6.384" /></g><text x="340" y="345" font-family="Inter" font-size="14" font-weight="400" fill="#444746" text-anchor="end">Phone, Messages</text><text x="72" y="346" font-family="Inter" font-size="16" font-weight="400" fill="#1F1F1F">Most used</text></g><rect x="13" y="165" width="334" height="82" rx="12" fill="none" stroke="#E8542F" stroke-width="2.5"/><rect x="198.3" y="154" width="138.7" height="21" rx="10.5" fill="#E8542F"/><text x="267.6" y="168.5" font-family="Inter" font-size="11.5" font-weight="700" fill="#FFFFFF" text-anchor="middle">This means it worked</text></g></g></svg>
